<svg width="24" height="25" viewBox="0 0 24 25" fill="none" xmlns="http://www.w3.org/2000/svg">
<path d="M5.25 11.75H20.25C20.4489 11.75 20.6397 11.829 20.7803 11.9697C20.921 12.1103 21 12.3011 21 12.5C21 12.6989 20.921 12.8897 20.7803 13.0303C20.6397 13.171 20.4489 13.25 20.25 13.25H5.25C5.05109 13.25 4.86032 13.171 4.71967 13.0303C4.57902 12.8897 4.5 12.6989 4.5 12.5C4.5 12.3011 4.57902 12.1103 4.71967 11.9697C4.86032 11.829 5.05109 11.75 5.25 11.75Z" fill="#1B1B1B"/>
<path d="M5.56184 12.5009L11.7823 18.7199C11.9232 18.8608 12.0023 19.0518 12.0023 19.2509C12.0023 19.4501 11.9232 19.6411 11.7823 19.7819C11.6415 19.9228 11.4505 20.0019 11.2513 20.0019C11.0522 20.0019 10.8612 19.9228 10.7203 19.7819L3.97034 13.0319C3.9005 12.9623 3.84508 12.8795 3.80727 12.7884C3.76946 12.6973 3.75 12.5996 3.75 12.5009C3.75 12.4023 3.76946 12.3046 3.80727 12.2135C3.84508 12.1224 3.9005 12.0396 3.97034 11.9699L10.7203 5.21995C10.8612 5.07912 11.0522 5 11.2513 5C11.4505 5 11.6415 5.07912 11.7823 5.21995C11.9232 5.36078 12.0023 5.55178 12.0023 5.75095C12.0023 5.95011 11.9232 6.14112 11.7823 6.28195L5.56184 12.5009Z" fill="#1B1B1B"/>
</svg>
