<svg width="24" height="24" viewBox="0 0 24 24" fill="none" xmlns="http://www.w3.org/2000/svg">
<path d="M0 12C0 8.27247 0 6.4087 0.608964 4.93853C1.42092 2.97831 2.97831 1.42092 4.93853 0.608964C6.4087 0 8.27247 0 12 0V0C15.7275 0 17.5913 0 19.0615 0.608964C21.0217 1.42092 22.5791 2.97831 23.391 4.93853C24 6.4087 24 8.27247 24 12V12C24 15.7275 24 17.5913 23.391 19.0615C22.5791 21.0217 21.0217 22.5791 19.0615 23.391C17.5913 24 15.7275 24 12 24V24C8.27247 24 6.4087 24 4.93853 23.391C2.97831 22.5791 1.42092 21.0217 0.608964 19.0615C0 17.5913 0 15.7275 0 12V12Z" fill="#DBE9DA"/>
<path d="M12 9.50001C11.5055 9.50001 11.0222 9.64663 10.6111 9.92133C10.2 10.196 9.87952 10.5865 9.6903 11.0433C9.50108 11.5001 9.45158 12.0028 9.54804 12.4877C9.6445 12.9727 9.8826 13.4181 10.2322 13.7678C10.5819 14.1174 11.0273 14.3555 11.5123 14.452C11.9972 14.5484 12.4999 14.4989 12.9567 14.3097C13.4135 14.1205 13.804 13.8001 14.0787 13.3889C14.3534 12.9778 14.5 12.4945 14.5 12C14.5 11.337 14.2366 10.7011 13.7678 10.2322C13.2989 9.7634 12.663 9.50001 12 9.50001ZM12 13.5C11.7033 13.5 11.4133 13.412 11.1666 13.2472C10.92 13.0824 10.7277 12.8481 10.6142 12.574C10.5007 12.2999 10.4709 11.9983 10.5288 11.7074C10.5867 11.4164 10.7296 11.1491 10.9393 10.9393C11.1491 10.7296 11.4164 10.5867 11.7074 10.5288C11.9983 10.471 12.2999 10.5007 12.574 10.6142C12.8481 10.7277 13.0824 10.92 13.2472 11.1667C13.412 11.4133 13.5 11.7033 13.5 12C13.5 12.3978 13.342 12.7794 13.0607 13.0607C12.7794 13.342 12.3978 13.5 12 13.5ZM16.6069 13.9463C16.3921 14.4541 16.0947 14.9229 15.7269 15.3338C15.6378 15.4301 15.5144 15.4876 15.3833 15.4938C15.2523 15.5 15.124 15.4545 15.0262 15.3669C14.9284 15.2794 14.869 15.157 14.8607 15.026C14.8524 14.895 14.8959 14.766 14.9819 14.6669C15.6384 13.9338 16.0014 12.9844 16.0014 12.0003C16.0014 11.0163 15.6384 10.0668 14.9819 9.33376C14.9369 9.28504 14.902 9.22786 14.8793 9.16554C14.8566 9.10322 14.8465 9.037 14.8496 8.97074C14.8528 8.90449 14.8691 8.83952 14.8976 8.77962C14.926 8.71972 14.9662 8.66609 15.0156 8.62185C15.065 8.57761 15.1227 8.54365 15.1854 8.52194C15.2481 8.50023 15.3145 8.49121 15.3807 8.4954C15.4469 8.49959 15.5116 8.51691 15.571 8.54635C15.6304 8.57579 15.6834 8.61676 15.7269 8.66688C16.3582 9.37334 16.7761 10.2445 16.9318 11.1791C17.0876 12.1136 16.9749 13.0732 16.6069 13.9463ZM8.3125 10.4431C8.01749 11.1415 7.92701 11.9093 8.05161 12.6571C8.1762 13.4049 8.51075 14.1019 9.01625 14.6669C9.10221 14.766 9.14574 14.895 9.13745 15.026C9.12916 15.157 9.06971 15.2794 8.97193 15.3669C8.87415 15.4545 8.74588 15.5 8.6148 15.4938C8.48371 15.4876 8.36032 15.4301 8.27125 15.3338C7.45037 14.4175 6.99644 13.2305 6.99644 12.0003C6.99644 10.7701 7.45037 9.58316 8.27125 8.66688C8.35969 8.56784 8.48384 8.50799 8.61641 8.50048C8.74897 8.49298 8.87909 8.53845 8.97813 8.62688C9.07717 8.71532 9.13703 8.83947 9.14453 8.97204C9.15203 9.1046 9.10656 9.23472 9.01813 9.33376C8.72313 9.66194 8.48468 10.0368 8.3125 10.4431ZM19.5 12C19.503 13.9636 18.7332 15.8495 17.3569 17.25C17.3113 17.2987 17.2565 17.3378 17.1957 17.365C17.1348 17.3922 17.0691 17.4069 17.0025 17.4083C16.9359 17.4098 16.8696 17.3979 16.8076 17.3733C16.7456 17.3488 16.6892 17.3121 16.6416 17.2654C16.594 17.2188 16.5562 17.163 16.5305 17.1016C16.5048 17.0401 16.4916 16.9741 16.4917 16.9074C16.4919 16.8407 16.5053 16.7748 16.5313 16.7134C16.5573 16.652 16.5953 16.5965 16.6431 16.55C17.8348 15.3359 18.5025 13.7025 18.5025 12.0013C18.5025 10.3 17.8348 8.66666 16.6431 7.45251C16.55 7.35786 16.4982 7.23008 16.4993 7.09728C16.5003 6.96448 16.5541 6.83754 16.6488 6.74438C16.7434 6.65123 16.8712 6.59948 17.004 6.60054C17.1368 6.60159 17.2637 6.65536 17.3569 6.75001C18.7332 8.15053 19.503 10.0364 19.5 12ZM7.35688 16.5488C7.40292 16.5956 7.43929 16.6511 7.46389 16.712C7.4885 16.7729 7.50086 16.8381 7.50028 16.9038C7.4997 16.9695 7.48619 17.0344 7.46051 17.0949C7.43483 17.1554 7.39749 17.2102 7.35063 17.2563C7.30376 17.3023 7.24829 17.3387 7.18737 17.3633C7.12645 17.3879 7.06128 17.4002 6.99558 17.3997C6.92989 17.3991 6.86495 17.3856 6.80447 17.3599C6.744 17.3342 6.68917 17.2969 6.64313 17.25C5.26699 15.8491 4.49594 13.9638 4.49594 12C4.49594 10.0362 5.26699 8.15096 6.64313 6.75001C6.68866 6.70133 6.74347 6.66224 6.80433 6.63505C6.86519 6.60786 6.93087 6.59311 6.99751 6.59167C7.06415 6.59023 7.13041 6.60213 7.19239 6.62668C7.25436 6.65122 7.3108 6.6879 7.35839 6.73458C7.40598 6.78125 7.44376 6.83697 7.4695 6.89846C7.49525 6.95994 7.50843 7.02595 7.50829 7.09261C7.50815 7.15927 7.49468 7.22523 7.46868 7.2866C7.44268 7.34798 7.40467 7.40354 7.35688 7.45001C6.16517 8.66416 5.49753 10.2975 5.49753 11.9988C5.49753 13.7 6.16517 15.3334 7.35688 16.5475V16.5488Z" fill="#1C1C1C"/>
</svg>
