<svg width="317" height="308" viewBox="0 0 317 308" fill="none" xmlns="http://www.w3.org/2000/svg">
<path fill-rule="evenodd" clip-rule="evenodd" d="M252.674 36.3388C274.443 54.7655 290.646 78.8915 299.469 106.01L299.5 106C309.5 139 314.245 174.424 315 185.5C319.5 251.5 312.667 281.5 308 296.5C302.965 287.941 293.93 277.86 284.091 266.882L284.091 266.882C264.618 245.156 241.997 219.916 241 196C235.584 156.282 229.353 138.564 226.72 131.079C226.575 130.667 226.441 130.285 226.319 129.933L226.271 129.948C221.883 116.39 213.795 104.327 202.918 95.1196C192.04 85.9124 178.807 79.927 164.71 77.8383C150.614 75.7496 136.213 77.6408 123.134 83.2985C110.054 88.9561 98.8153 98.1553 90.6843 109.859C82.5533 121.562 77.8536 135.305 77.1151 149.536C76.3766 163.768 79.6287 177.923 86.5047 190.405C93.3806 202.887 103.607 213.201 116.031 220.182C128.455 227.163 142.582 230.534 156.819 229.916L156.822 229.989C171.667 229.496 194.576 229.262 205 231C206.137 231.189 207.249 231.315 208.395 231.445C216.317 232.339 225.794 233.41 255.5 257C263.167 264.166 279.6 282.3 286 291.5L297.5 307.5L157.5 307L157.499 306.948C129.831 307.669 102.463 300.895 78.3047 287.32C53.3719 273.31 32.849 252.614 19.0498 227.564C5.25071 202.513 -1.27577 174.106 0.206287 145.546C1.68834 116.985 11.12 89.4057 27.4378 65.9184C43.7555 42.4311 66.3105 23.9696 92.5594 12.6154C118.808 1.26126 147.707 -2.53395 175.998 1.65771C204.288 5.84937 230.845 17.8612 252.674 36.3388Z" fill="#15B54D"/>
<path d="M100.421 120.513C105.254 111.847 120.921 90.0021 158.078 96.0403C190.078 101.24 206.078 124.54 210.078 135.54C213.578 140.54 221.578 162.14 225.578 208.54C195.244 212.207 135.626 217.986 116.421 203.513C96.3717 188.404 83.4201 163.513 95.9207 128.513C111.421 130.847 152.778 144.14 187.578 170.54C177.411 158.707 143.22 131.713 100.421 120.513Z" fill="#1BB54C"/>
<path d="M88 193C93.5 214.5 118.445 239.488 146.5 245.5C206.5 258.357 224.027 264.142 237.5 270C253 276.739 277 290.5 297 306C283.833 283.333 266.5 239.5 206.5 229.5C190 225 164.5 229.5 146.5 228C130.178 226.64 103.5 218 88 193Z" fill="#018641"/>
</svg>
