<svg width="631" height="565" viewBox="0 0 631 565" fill="none" xmlns="http://www.w3.org/2000/svg">
<path d="M325.623 325.623C304.155 347.09 276.804 361.71 247.028 367.632C217.252 373.555 186.388 370.515 158.34 358.897C130.291 347.279 106.318 327.605 89.4513 302.362C72.5845 277.119 63.5819 247.441 63.5819 217.082C63.5819 186.722 72.5845 157.045 89.4513 131.802C106.318 106.559 130.292 86.8844 158.34 75.2663C186.388 63.6483 217.252 60.6085 247.028 66.5313C276.804 72.4541 304.155 87.0736 325.623 108.541L270.293 163.871C259.769 153.346 246.36 146.179 231.763 143.276C217.165 140.372 202.035 141.862 188.284 147.558C174.534 153.254 162.781 162.899 154.512 175.274C146.243 187.649 141.83 202.198 141.83 217.082C141.83 231.965 146.243 246.515 154.512 258.89C162.781 271.265 174.534 280.91 188.284 286.606C202.035 292.301 217.165 293.792 231.763 290.888C246.36 287.984 259.769 280.817 270.293 270.293L325.623 325.623Z" fill="url(#paint0_linear_349_101)"/>
<path d="M270.115 163.342L451.402 344.629L506.557 289.475L325.269 108.187L270.115 163.342Z" fill="url(#paint1_linear_349_101)"/>
<path d="M451.402 344.629L506.557 289.475L564.539 347.458C545.447 365.135 496.091 389.318 451.402 344.629Z" fill="url(#paint2_linear_349_101)"/>
<path d="M325.269 325.976L362.039 289.207L306.884 234.052L270.115 270.822L325.269 325.976Z" fill="url(#paint3_linear_349_101)"/>
<path d="M332.34 318.905L369.11 282.136L313.956 226.981L277.186 263.751L332.34 318.905Z" fill="url(#paint4_linear_349_101)"/>
<path fill-rule="evenodd" clip-rule="evenodd" d="M586.799 324.83C586.515 325.118 586.23 325.406 585.943 325.693L585.94 325.69L573.817 337.836L518.464 282.587L531.87 269.156L531.921 269.207C538.349 262.475 543.478 254.607 547.044 245.998C550.832 236.853 552.782 227.051 552.782 217.152C552.782 207.253 550.832 197.451 547.044 188.305C543.256 179.16 537.703 170.85 530.704 163.85C523.704 156.85 515.394 151.298 506.249 147.51C497.103 143.722 487.301 141.772 477.402 141.772C467.503 141.772 457.701 143.722 448.556 147.51C441.33 150.503 434.626 154.597 428.678 159.636L412.809 175.535L357.456 120.285L368.985 108.735L368.861 108.611C370.559 106.913 372.294 105.258 374.065 103.645L376.549 101.156L376.697 101.304C389.175 90.4567 403.342 81.6811 418.66 75.3361C437.284 67.622 457.244 63.6516 477.402 63.6516C497.56 63.6516 517.521 67.622 536.144 75.3361C554.768 83.0502 571.689 94.3569 585.943 108.611C600.197 122.865 611.504 139.786 619.218 158.41C626.932 177.033 630.902 196.994 630.902 217.152C630.902 237.31 626.932 257.27 619.218 275.894C611.735 293.958 600.872 310.421 587.219 324.402L587.222 324.406L586.799 324.83Z" fill="url(#paint5_linear_349_101)"/>
<path fill-rule="evenodd" clip-rule="evenodd" d="M504.277 267.595L521.022 260.659L539.182 216.818L521.022 172.977L477.182 154.818L433.341 172.977L426.338 189.885L504.277 267.595Z" fill="#D9D9D9"/>
<path opacity="0.9" d="M477.182 214.818L433.182 172.818L477.182 154.818V214.818Z" fill="#999999"/>
<path opacity="0.9" d="M477.182 214.818L521.182 172.818L477.182 154.818V214.818Z" fill="#606060"/>
<path opacity="0.9" d="M477.182 214.818L539.182 216.818L521.182 172.818L477.182 214.818Z" fill="#505050"/>
<path opacity="0.9" fill-rule="evenodd" clip-rule="evenodd" d="M477.182 214.818L433.182 172.818L426.182 189.818L452.182 215.625L477.182 214.818Z" fill="#828282"/>
<path opacity="0.9" fill-rule="evenodd" clip-rule="evenodd" d="M477.182 214.818L521.181 260.818L504.173 267.658L477.182 240.659L477.182 214.818Z" fill="#3A3A3A"/>
<path opacity="0.9" d="M477.182 214.704L464.681 228.318L477.182 240.818L477.182 214.704Z" fill="#434343"/>
<path opacity="0.9" d="M477.182 214.818L521.182 260.818L539.182 216.818L477.182 214.818Z" fill="#434343"/>
<path opacity="0.9" d="M477.182 214.818L464.682 228.318L451.682 215.318L477.182 214.818Z" fill="#505050"/>
<path fill-rule="evenodd" clip-rule="evenodd" d="M173.841 260.522C164.515 251.196 158.781 239.638 156.639 227.568C199 211.5 248 202.819 293.5 215.5C260 201.5 198 201.5 155.695 217.98C155.355 201.683 161.404 185.277 173.841 172.84C198.053 148.628 237.309 148.628 261.522 172.84L305.362 216.681L261.522 260.522C237.309 284.734 198.053 284.734 173.841 260.522Z" fill="url(#paint6_linear_349_101)"/>
<path d="M291.5 215C236 199.5 178.204 219.913 156.6 227.779C162.1 247.391 166.6 252.391 171.1 256.891C199.77 224.357 251.5 213.5 291.5 215Z" fill="url(#paint7_linear_349_101)"/>
<path d="M196.279 172.71C221.479 165.91 244.5 175.333 254.5 179.5C261.5 182.416 282.779 194.21 304.779 216.21L261.278 172.71C255.945 166.877 240.081 155.51 217.281 154.71C188.781 153.71 154.281 180.71 155.778 218.21C157.613 211.873 162.017 200.895 168.278 192.614C174.844 183.93 184.04 176.013 196.279 172.71Z" fill="url(#paint8_linear_349_101)"/>
<defs>
<linearGradient id="paint0_linear_349_101" x1="51.2652" y1="165.109" x2="503.814" y2="286.732" gradientUnits="userSpaceOnUse">
<stop stop-color="#48C84B"/>
<stop offset="0.66" stop-color="#41C76C"/>
<stop offset="1" stop-color="#999999"/>
</linearGradient>
<linearGradient id="paint1_linear_349_101" x1="51.2652" y1="165.109" x2="503.814" y2="286.732" gradientUnits="userSpaceOnUse">
<stop stop-color="#48C84B"/>
<stop offset="0.66" stop-color="#41C76C"/>
<stop offset="1" stop-color="#999999"/>
</linearGradient>
<linearGradient id="paint2_linear_349_101" x1="51.2652" y1="165.109" x2="503.814" y2="286.732" gradientUnits="userSpaceOnUse">
<stop stop-color="#48C84B"/>
<stop offset="0.66" stop-color="#41C76C"/>
<stop offset="1" stop-color="#999999"/>
</linearGradient>
<linearGradient id="paint3_linear_349_101" x1="51.2652" y1="165.109" x2="503.814" y2="286.732" gradientUnits="userSpaceOnUse">
<stop stop-color="#48C84B"/>
<stop offset="0.66" stop-color="#41C76C"/>
<stop offset="1" stop-color="#999999"/>
</linearGradient>
<linearGradient id="paint4_linear_349_101" x1="51.2652" y1="165.109" x2="503.814" y2="286.732" gradientUnits="userSpaceOnUse">
<stop stop-color="#48C84B"/>
<stop offset="0.66" stop-color="#41C76C"/>
<stop offset="1" stop-color="#999999"/>
</linearGradient>
<linearGradient id="paint5_linear_349_101" x1="589.681" y1="107.818" x2="393.181" y2="286.319" gradientUnits="userSpaceOnUse">
<stop stop-color="#6C6C6C"/>
<stop offset="0.668562" stop-color="#A0A0A0"/>
</linearGradient>
<linearGradient id="paint6_linear_349_101" x1="352.781" y1="205.211" x2="85.2812" y2="245.711" gradientUnits="userSpaceOnUse">
<stop stop-color="#066C26"/>
<stop offset="0.710135" stop-color="#54DB52"/>
<stop offset="1" stop-color="#23B652"/>
</linearGradient>
<linearGradient id="paint7_linear_349_101" x1="270.975" y1="192.636" x2="211.522" y2="277.914" gradientUnits="userSpaceOnUse">
<stop stop-color="#178A24" stop-opacity="0.82"/>
<stop offset="1" stop-color="#178A24" stop-opacity="0"/>
</linearGradient>
<linearGradient id="paint8_linear_349_101" x1="277.781" y1="185.71" x2="155.781" y2="165.21" gradientUnits="userSpaceOnUse">
<stop stop-color="#218D39" stop-opacity="0.5"/>
<stop offset="0.98" stop-color="#43C547" stop-opacity="0.52"/>
<stop offset="1" stop-color="#D9D9D9" stop-opacity="0"/>
</linearGradient>
</defs>
</svg>
