<svg width="572" height="329" viewBox="0 0 572 329" fill="none" xmlns="http://www.w3.org/2000/svg">
<path d="M266.623 274.623C245.155 296.09 217.804 310.71 188.028 316.632C158.252 322.555 127.388 319.515 99.3399 307.897C71.2915 296.279 47.3181 276.605 30.4513 251.362C13.5845 226.119 4.58187 196.441 4.58188 166.082C4.58189 135.722 13.5845 106.045 30.4513 80.8018C47.3181 55.5588 71.2915 35.8844 99.34 24.2663C127.388 12.6483 158.252 9.60846 188.028 15.5313C217.804 21.4541 245.155 36.0736 266.623 57.541L211.293 112.871C200.769 102.346 187.36 95.1792 172.763 92.2756C158.165 89.372 143.035 90.8622 129.284 96.5579C115.534 102.254 103.781 111.899 95.512 124.274C87.2432 136.649 82.8297 151.198 82.8297 166.082C82.8297 180.965 87.2432 195.515 95.512 207.89C103.781 220.265 115.534 229.91 129.284 235.606C143.035 241.301 158.165 242.792 172.763 239.888C187.36 236.984 200.769 229.817 211.293 219.293L266.623 274.623Z" fill="url(#paint0_linear_349_101)"/>
<path d="M211.115 112.342L392.402 293.629L447.557 238.475L266.269 57.1874L211.115 112.342Z" fill="url(#paint1_linear_349_101)"/>
<path d="M392.402 293.629L447.557 238.475L505.539 296.458C486.447 314.135 437.091 338.318 392.402 293.629Z" fill="url(#paint2_linear_349_101)"/>
<path d="M266.269 274.976L303.039 238.207L247.884 183.052L211.115 219.822L266.269 274.976Z" fill="url(#paint3_linear_349_101)"/>
<path d="M273.34 267.905L310.11 231.136L254.956 175.981L218.186 212.751L273.34 267.905Z" fill="url(#paint4_linear_349_101)"/>
<path fill-rule="evenodd" clip-rule="evenodd" d="M527.799 273.83C527.515 274.118 527.23 274.406 526.943 274.693L526.94 274.69L514.817 286.836L459.464 231.587L472.87 218.156L472.921 218.207C479.349 211.475 484.478 203.607 488.044 194.998C491.832 185.853 493.782 176.051 493.782 166.152C493.782 156.253 491.832 146.451 488.044 137.305C484.256 128.16 478.703 119.85 471.704 112.85C464.704 105.85 456.394 100.298 447.249 96.5097C438.103 92.7215 428.301 90.7718 418.402 90.7718C408.503 90.7718 398.701 92.7215 389.556 96.5097C382.33 99.5027 375.626 103.597 369.678 108.636L353.809 124.535L298.456 69.2852L309.985 57.7346L309.861 57.6107C311.559 55.9135 313.294 54.258 315.065 52.6454L317.549 50.1561L317.697 50.3036C330.175 39.4567 344.342 30.6811 359.66 24.3361C378.284 16.622 398.244 12.6516 418.402 12.6516C438.56 12.6516 458.521 16.622 477.144 24.3361C495.768 32.0502 512.689 43.3569 526.943 57.6107C541.197 71.8645 552.504 88.7862 560.218 107.41C567.932 126.033 571.902 145.994 571.902 166.152C571.902 186.31 567.932 206.27 560.218 224.894C552.735 242.958 541.872 259.421 528.219 273.402L528.222 273.406L527.799 273.83Z" fill="url(#paint5_linear_349_101)"/>
<path fill-rule="evenodd" clip-rule="evenodd" d="M445.277 216.595L462.022 209.659L480.182 165.818L462.022 121.977L418.182 103.818L374.341 121.977L367.338 138.885L445.277 216.595Z" fill="#D9D9D9"/>
<path opacity="0.9" d="M418.182 163.818L374.182 121.818L418.182 103.818V163.818Z" fill="#999999"/>
<path opacity="0.9" d="M418.182 163.818L462.182 121.818L418.182 103.818V163.818Z" fill="#606060"/>
<path opacity="0.9" d="M418.182 163.818L480.182 165.818L462.182 121.818L418.182 163.818Z" fill="#505050"/>
<path opacity="0.9" fill-rule="evenodd" clip-rule="evenodd" d="M418.182 163.818L374.182 121.818L367.182 138.818L393.182 164.625L418.182 163.818Z" fill="#828282"/>
<path opacity="0.9" fill-rule="evenodd" clip-rule="evenodd" d="M418.182 163.818L462.181 209.818L445.173 216.658L418.182 189.659L418.182 163.818Z" fill="#3A3A3A"/>
<path opacity="0.9" d="M418.182 163.704L405.681 177.318L418.182 189.818L418.182 163.704Z" fill="#434343"/>
<path opacity="0.9" d="M418.182 163.818L462.182 209.818L480.182 165.818L418.182 163.818Z" fill="#434343"/>
<path opacity="0.9" d="M418.182 163.818L405.682 177.318L392.682 164.318L418.182 163.818Z" fill="#505050"/>
<path fill-rule="evenodd" clip-rule="evenodd" d="M114.841 209.522C105.515 200.196 99.7809 188.638 97.6391 176.568C140 160.5 189 151.819 234.5 164.5C201 150.5 139 150.5 96.6948 166.98C96.3553 150.683 102.404 134.277 114.841 121.84C139.053 97.6278 178.309 97.6278 202.522 121.84L246.362 165.681L202.522 209.522C178.309 233.734 139.053 233.734 114.841 209.522Z" fill="url(#paint6_linear_349_101)"/>
<path d="M232.5 164C177 148.5 119.204 168.913 97.5996 176.779C103.1 196.391 107.6 201.391 112.1 205.891C140.77 173.357 192.5 162.5 232.5 164Z" fill="url(#paint7_linear_349_101)"/>
<path d="M137.279 121.71C162.479 114.91 185.5 124.333 195.5 128.5C202.5 131.416 223.779 143.21 245.779 165.21L202.278 121.71C196.945 115.877 181.081 104.51 158.281 103.71C129.781 102.71 95.2812 129.71 96.7785 167.21C98.6133 160.873 103.017 149.895 109.278 141.614C115.844 132.93 125.04 125.013 137.279 121.71Z" fill="url(#paint8_linear_349_101)"/>
<defs>
<linearGradient id="paint0_linear_349_101" x1="-7.73476" y1="114.109" x2="444.814" y2="235.732" gradientUnits="userSpaceOnUse">
<stop stop-color="#48C84B"/>
<stop offset="0.66" stop-color="#41C76C"/>
<stop offset="1" stop-color="#999999"/>
</linearGradient>
<linearGradient id="paint1_linear_349_101" x1="-7.73476" y1="114.109" x2="444.814" y2="235.732" gradientUnits="userSpaceOnUse">
<stop stop-color="#48C84B"/>
<stop offset="0.66" stop-color="#41C76C"/>
<stop offset="1" stop-color="#999999"/>
</linearGradient>
<linearGradient id="paint2_linear_349_101" x1="-7.73476" y1="114.109" x2="444.814" y2="235.732" gradientUnits="userSpaceOnUse">
<stop stop-color="#48C84B"/>
<stop offset="0.66" stop-color="#41C76C"/>
<stop offset="1" stop-color="#999999"/>
</linearGradient>
<linearGradient id="paint3_linear_349_101" x1="-7.73476" y1="114.109" x2="444.814" y2="235.732" gradientUnits="userSpaceOnUse">
<stop stop-color="#48C84B"/>
<stop offset="0.66" stop-color="#41C76C"/>
<stop offset="1" stop-color="#999999"/>
</linearGradient>
<linearGradient id="paint4_linear_349_101" x1="-7.73476" y1="114.109" x2="444.814" y2="235.732" gradientUnits="userSpaceOnUse">
<stop stop-color="#48C84B"/>
<stop offset="0.66" stop-color="#41C76C"/>
<stop offset="1" stop-color="#999999"/>
</linearGradient>
<linearGradient id="paint5_linear_349_101" x1="530.681" y1="56.818" x2="334.181" y2="235.319" gradientUnits="userSpaceOnUse">
<stop stop-color="#6C6C6C"/>
<stop offset="0.668562" stop-color="#A0A0A0"/>
</linearGradient>
<linearGradient id="paint6_linear_349_101" x1="293.781" y1="154.211" x2="26.2812" y2="194.711" gradientUnits="userSpaceOnUse">
<stop stop-color="#066C26"/>
<stop offset="0.710135" stop-color="#54DB52"/>
<stop offset="1" stop-color="#23B652"/>
</linearGradient>
<linearGradient id="paint7_linear_349_101" x1="211.975" y1="141.636" x2="152.522" y2="226.914" gradientUnits="userSpaceOnUse">
<stop stop-color="#178A24" stop-opacity="0.82"/>
<stop offset="1" stop-color="#178A24" stop-opacity="0"/>
</linearGradient>
<linearGradient id="paint8_linear_349_101" x1="218.781" y1="134.71" x2="96.7813" y2="114.21" gradientUnits="userSpaceOnUse">
<stop stop-color="#218D39" stop-opacity="0.5"/>
<stop offset="0.98" stop-color="#43C547" stop-opacity="0.52"/>
<stop offset="1" stop-color="#D9D9D9" stop-opacity="0"/>
</linearGradient>
</defs>
</svg>
