<svg width="21" height="20" viewBox="0 0 21 20" fill="none" xmlns="http://www.w3.org/2000/svg">
<path d="M18.8989 10.6614C18.7386 10.4789 18.6502 10.2443 18.6502 10.0014C18.6502 9.75845 18.7386 9.52385 18.8989 9.34136L20.1789 7.90136C20.32 7.74403 20.4076 7.54606 20.4291 7.33587C20.4507 7.12567 20.4051 6.91405 20.2989 6.73136L18.2989 3.27136C18.1938 3.08888 18.0338 2.94424 17.8417 2.85805C17.6495 2.77186 17.4351 2.74852 17.2289 2.79136L15.3489 3.17136C15.1097 3.22079 14.8607 3.18095 14.6488 3.05936C14.4369 2.93777 14.2769 2.74284 14.1989 2.51136L13.5889 0.68136C13.5218 0.482739 13.394 0.310225 13.2235 0.188202C13.0531 0.0661789 12.8486 0.000818796 12.6389 0.00135996H8.63892C8.42085 -0.0100221 8.20505 0.0502863 8.02448 0.173074C7.84391 0.295862 7.7085 0.474379 7.63892 0.68136L7.07892 2.51136C7.00092 2.74284 6.84089 2.93777 6.62903 3.05936C6.41717 3.18095 6.16814 3.22079 5.92892 3.17136L3.99892 2.79136C3.80347 2.76374 3.60422 2.79458 3.42627 2.88C3.24831 2.96542 3.09962 3.10159 2.99892 3.27136L0.99892 6.73136C0.89008 6.91201 0.841142 7.12245 0.859102 7.33258C0.877063 7.54272 0.961002 7.7418 1.09892 7.90136L2.36892 9.34136C2.52924 9.52385 2.61765 9.75845 2.61765 10.0014C2.61765 10.2443 2.52924 10.4789 2.36892 10.6614L1.09892 12.1014C0.961002 12.2609 0.877063 12.46 0.859102 12.6701C0.841142 12.8803 0.89008 13.0907 0.99892 13.2714L2.99892 16.7314C3.10402 16.9138 3.26404 17.0585 3.45617 17.1447C3.6483 17.2309 3.86274 17.2542 4.06892 17.2114L5.94892 16.8314C6.18814 16.7819 6.43717 16.8218 6.64903 16.9434C6.86089 17.0649 7.02092 17.2599 7.09892 17.4914L7.70892 19.3214C7.7785 19.5283 7.91392 19.7069 8.09449 19.8296C8.27506 19.9524 8.49085 20.0127 8.70892 20.0014H12.7089C12.9186 20.0019 13.1231 19.9365 13.2935 19.8145C13.464 19.6925 13.5918 19.52 13.6589 19.3214L14.2689 17.4914C14.3469 17.2599 14.5069 17.0649 14.7188 16.9434C14.9307 16.8218 15.1797 16.7819 15.4189 16.8314L17.2989 17.2114C17.5051 17.2542 17.7195 17.2309 17.9117 17.1447C18.1038 17.0585 18.2638 16.9138 18.3689 16.7314L20.3689 13.2714C20.4751 13.0887 20.5207 12.877 20.4991 12.6669C20.4776 12.4567 20.39 12.2587 20.2489 12.1014L18.8989 10.6614ZM17.4089 12.0014L18.2089 12.9014L16.9289 15.1214L15.7489 14.8814C15.0287 14.7341 14.2795 14.8565 13.6435 15.2252C13.0075 15.5938 12.5291 16.1832 12.2989 16.8814L11.9189 18.0014H9.35892L8.99892 16.8614C8.76877 16.1632 8.2903 15.5738 7.65432 15.2052C7.01835 14.8365 6.26914 14.7141 5.54892 14.8614L4.36892 15.1014L3.06892 12.8914L3.86892 11.9914C4.36087 11.4413 4.63285 10.7293 4.63285 9.99136C4.63285 9.25343 4.36087 8.54138 3.86892 7.99136L3.06892 7.09136L4.34892 4.89136L5.52892 5.13136C6.24914 5.27858 6.99835 5.15624 7.63432 4.78756C8.2703 4.41888 8.74877 3.82952 8.97892 3.13136L9.35892 2.00136H11.9189L12.2989 3.14136C12.5291 3.83952 13.0075 4.42888 13.6435 4.79756C14.2795 5.16624 15.0287 5.28858 15.7489 5.14136L16.9289 4.90136L18.2089 7.12136L17.4089 8.02136C16.9225 8.57012 16.6539 9.27804 16.6539 10.0114C16.6539 10.7447 16.9225 11.4526 17.4089 12.0014ZM10.6389 6.00136C9.84779 6.00136 9.07444 6.23596 8.41664 6.67548C7.75884 7.11501 7.24615 7.73972 6.9434 8.47063C6.64065 9.20153 6.56144 10.0058 6.71578 10.7817C6.87012 11.5576 7.25108 12.2704 7.81049 12.8298C8.3699 13.3892 9.08263 13.7702 9.85856 13.9245C10.6345 14.0788 11.4387 13.9996 12.1697 13.6969C12.9006 13.3941 13.5253 12.8814 13.9648 12.2236C14.4043 11.5658 14.6389 10.7925 14.6389 10.0014C14.6389 8.94049 14.2175 7.92308 13.4673 7.17293C12.7172 6.42279 11.6998 6.00136 10.6389 6.00136ZM10.6389 12.0014C10.2434 12.0014 9.85668 11.8841 9.52778 11.6643C9.19888 11.4445 8.94254 11.1322 8.79116 10.7667C8.63979 10.4013 8.60018 9.99914 8.67735 9.61118C8.75452 9.22322 8.945 8.86685 9.22471 8.58715C9.50441 8.30744 9.86078 8.11696 10.2487 8.03979C10.6367 7.96262 11.0388 8.00223 11.4043 8.1536C11.7697 8.30498 12.0821 8.56132 12.3019 8.89022C12.5216 9.21912 12.6389 9.6058 12.6389 10.0014C12.6389 10.5318 12.4282 11.0405 12.0531 11.4156C11.6781 11.7906 11.1694 12.0014 10.6389 12.0014Z" fill="#3A8187"/>
</svg>
