<svg xmlns="http://www.w3.org/2000/svg" width="24" height="24" viewBox="0 0 24 24" fill="none">
            <path
              d="M16.5 5.25C16.5 4.83579 16.8358 4.5 17.25 4.5H19.25C19.8023 4.5 20.25 4.94772 20.25 5.5V20.75C20.25 21.3023 19.8023 21.75 19.25 21.75H4.75C4.19772 21.75 3.75 21.3023 3.75 20.75V5.5C3.75 4.94772 4.19772 4.5 4.75 4.5H6.75C7.16421 4.5 7.5 4.83579 7.5 5.25C7.5 5.66421 7.83579 6 8.25 6H15.75C16.1642 6 16.5 5.66421 16.5 5.25ZM6.75 11.25C6.75 11.6642 7.08579 12 7.5 12H16.5C16.9142 12 17.25 11.6642 17.25 11.25C17.25 10.8358 16.9142 10.5 16.5 10.5H7.5C7.08579 10.5 6.75 10.8358 6.75 11.25ZM6.75 17.25C6.75 17.6642 7.08579 18 7.5 18H16.5C16.9142 18 17.25 17.6642 17.25 17.25C17.25 16.8358 16.9142 16.5 16.5 16.5H7.5C7.08579 16.5 6.75 16.8358 6.75 17.25ZM10 4.5C9.44772 4.5 9 4.05228 9 3.5V3.25C9 2.69772 9.44772 2.25 10 2.25H14C14.5523 2.25 15 2.69772 15 3.25V3.5C15 4.05228 14.5523 4.5 14 4.5H10Z"
              fill="white"
            />
          </svg>