<svg width="24" height="24" viewBox="0 0 24 24" fill="none" xmlns="http://www.w3.org/2000/svg">
<path d="M0 12C0 8.27247 0 6.4087 0.608964 4.93853C1.42092 2.97831 2.97831 1.42092 4.93853 0.608964C6.4087 0 8.27247 0 12 0C15.7275 0 17.5913 0 19.0615 0.608964C21.0217 1.42092 22.5791 2.97831 23.391 4.93853C24 6.4087 24 8.27247 24 12C24 15.7275 24 17.5913 23.391 19.0615C22.5791 21.0217 21.0217 22.5791 19.0615 23.391C17.5913 24 15.7275 24 12 24C8.27247 24 6.4087 24 4.93853 23.391C2.97831 22.5791 1.42092 21.0217 0.608964 19.0615C0 17.5913 0 15.7275 0 12Z" fill="#EAECF5"/>
<path d="M18 10.6667C18 15.3334 12 19.3334 12 19.3334C12 19.3334 6 15.3334 6 10.6667C6 9.07539 6.63214 7.54926 7.75736 6.42405C8.88258 5.29883 10.4087 4.66669 12 4.66669C13.5913 4.66669 15.1174 5.29883 16.2426 6.42405C17.3679 7.54926 18 9.07539 18 10.6667Z" stroke="#101828" stroke-width="1.33333" stroke-linecap="round" stroke-linejoin="round"/>
<path d="M12 12.6667C13.1046 12.6667 14 11.7713 14 10.6667C14 9.56212 13.1046 8.66669 12 8.66669C10.8954 8.66669 10 9.56212 10 10.6667C10 11.7713 10.8954 12.6667 12 12.6667Z" stroke="#101828" stroke-width="1.33333" stroke-linecap="round" stroke-linejoin="round"/>
</svg>
