<svg width="446" height="297" viewBox="0 0 446 297" fill="none" xmlns="http://www.w3.org/2000/svg">
<path d="M396.221 89.2635L390.543 116.792L386.891 113.225L380.671 117.663L375.92 111.758L365.26 119.516L356.157 104.267L345.996 110.224L341.969 104.662L329.069 111.939L325.188 103.621L334.229 59.7773L382.707 69.7975L396.221 89.2635Z" fill="#EBEBEB"/>
<path d="M382.707 69.7969L396.223 89.2605L379.41 85.7856L382.707 69.7969Z" fill="#DBDBDB"/>
<path d="M389.336 122.296L381.008 162.685L315.715 149.192L323.98 109.125L327.862 117.442L340.762 110.166L344.789 115.728L354.95 109.771L364.052 125.019L374.713 117.262L379.464 123.167L385.684 118.729L389.336 122.296Z" fill="#EBEBEB"/>
<path d="M295.879 117.56L229.337 121.682L224.051 36.1664L273.458 33.1055L291.601 48.3386L295.879 117.56Z" fill="#EBEBEB"/>
<path d="M273.457 33.1055L291.599 48.3386L274.465 49.4001L273.457 33.1055Z" fill="#DBDBDB"/>
<path d="M255.013 90.6439L254.755 88.7151C254.084 84.7169 255.178 80.2459 258.648 75.5675C261.776 71.4309 263.474 68.4205 263.287 65.0686C263.074 61.2688 260.551 58.869 255.858 59.0573C253.179 59.2076 250.252 60.2685 248.471 61.7885L246.422 57.1945C248.778 55.2688 252.953 53.839 256.897 53.6175C265.455 53.1375 269.621 58.2109 269.937 63.8723C270.221 68.9391 267.597 72.7478 264.263 77.1951C261.205 81.2527 260.198 84.5981 260.634 88.3849L260.817 90.3178L255.013 90.6439ZM253.959 101.166C253.805 98.4092 255.557 96.3676 258.161 96.2215C260.766 96.0754 262.66 97.9126 262.815 100.669C262.96 103.277 261.361 105.385 258.608 105.539C256.004 105.685 254.105 103.774 253.959 101.166Z" fill="#DBDBDB"/>
<path d="M88.5968 76.0987L81.9004 73.0586L80.9719 75.1115C80.6989 75.715 80.1074 76.1005 79.4458 76.1296C79.0803 76.1456 78.7148 76.1818 78.3511 76.2371C77.6984 76.3369 77.0446 76.0737 76.6601 75.5368L75.3494 73.7049L69.3704 77.9935L70.6811 79.8248C71.0656 80.3624 71.1041 81.0663 70.8003 81.6532C70.6306 81.9799 70.4793 82.3149 70.3464 82.6564C70.1061 83.2742 69.5514 83.7108 68.8928 83.7755L66.6523 83.9953L67.3744 91.3205L69.6226 91.0966C70.2818 91.0307 70.9054 91.3591 71.2631 91.9175C71.3604 92.069 71.4619 92.2187 71.5669 92.366C71.6725 92.5133 71.7811 92.6576 71.8933 92.7984C72.3038 93.3146 72.4142 94.0078 72.1425 94.6089L71.2074 96.6766L77.9037 99.7167L78.8364 97.6597C79.11 97.0562 79.7027 96.6713 80.3643 96.6428C80.7286 96.6273 81.0923 96.5917 81.4548 96.537C82.1069 96.4384 82.7596 96.701 83.144 97.238L84.4553 99.0704L90.4343 94.7818L89.1231 92.9493C88.7392 92.4123 88.7 91.709 89.0032 91.1227C89.1717 90.7972 89.3218 90.4634 89.4536 90.123C89.6933 89.5053 90.2474 89.0675 90.9066 89.0021L93.1518 88.7794L92.4297 81.4542L90.1833 81.6763C89.5265 81.7411 88.9047 81.4138 88.5481 80.8572C88.4502 80.7052 88.3482 80.5543 88.242 80.4052C88.1363 80.2579 88.0278 80.1135 87.9156 79.9728C87.5027 79.4542 87.3923 78.7574 87.6658 78.1533L88.5968 76.0987ZM84.7983 82.8756C86.7355 85.5825 86.1143 89.3455 83.411 91.2849C80.7072 93.2243 76.9437 92.6059 75.0065 89.8991C73.0692 87.1922 73.6916 83.4209 76.3955 81.4815C79.0987 79.5427 82.861 80.1694 84.7983 82.8756Z" fill="#EBEBEB"/>
<path d="M391.138 173.279L386.676 175.856L387.465 177.223C387.697 177.625 387.675 178.119 387.422 178.508C387.282 178.723 387.153 178.946 387.036 179.176C386.827 179.589 386.41 179.854 385.948 179.854H384.371V185.012H385.948C386.41 185.012 386.827 185.278 387.036 185.691C387.153 185.921 387.282 186.143 387.422 186.358C387.675 186.747 387.698 187.242 387.465 187.644L386.676 189.011L391.138 191.588L391.928 190.215C392.159 189.812 392.601 189.59 393.064 189.614C393.19 189.621 393.316 189.624 393.443 189.624C393.57 189.624 393.697 189.621 393.822 189.614C394.284 189.59 394.723 189.81 394.954 190.21L395.748 191.587L400.21 189.01L399.42 187.639C399.188 187.237 399.211 186.742 399.465 186.354C399.604 186.14 399.733 185.918 399.849 185.689C400.059 185.277 400.475 185.012 400.938 185.012H402.515V179.854H400.938C400.475 179.854 400.059 179.589 399.849 179.176C399.733 178.948 399.604 178.726 399.465 178.512C399.211 178.123 399.188 177.628 399.42 177.226L400.21 175.855L395.748 173.277L394.958 174.649C394.727 175.05 394.287 175.271 393.825 175.247C393.698 175.241 393.571 175.238 393.443 175.238C393.316 175.238 393.189 175.241 393.063 175.247C392.6 175.271 392.159 175.049 391.927 174.647L391.138 173.279ZM393.444 178.209C395.774 178.209 397.661 180.099 397.661 182.431C397.661 184.764 395.774 186.658 393.444 186.658C391.114 186.658 389.222 184.764 389.222 182.431C389.222 180.099 391.113 178.209 393.444 178.209Z" fill="#EBEBEB"/>
<path d="M102.139 54.1517L98.0478 57.2838L99.0061 58.5372C99.2879 58.906 99.3295 59.3991 99.1289 59.8172C99.0174 60.0483 98.9189 60.2859 98.8328 60.5294C98.6786 60.9654 98.2994 61.2826 97.8408 61.3426L96.2773 61.5464L96.9425 66.6619L98.5059 66.4581C98.9645 66.3982 99.4119 66.6078 99.6724 66.9898C99.8178 67.203 99.9738 67.4074 100.141 67.6022C100.442 67.955 100.527 68.4427 100.349 68.871L99.7436 70.3287L104.5 72.3079L105.106 70.8442C105.284 70.4154 105.692 70.1386 106.155 70.1017C106.281 70.0916 106.407 70.0786 106.533 70.0625C106.658 70.0459 106.783 70.0269 106.907 70.0037C107.361 69.9206 107.825 70.0821 108.106 70.4492L109.071 71.7121L113.164 68.5799L112.204 67.3224C111.922 66.9535 111.881 66.4599 112.083 66.0418C112.194 65.8113 112.293 65.5749 112.379 65.3325C112.533 64.8971 112.912 64.5805 113.37 64.5205L114.934 64.3168L114.269 59.2013L112.705 59.405C112.247 59.465 111.8 59.2559 111.539 58.874C111.394 58.6619 111.238 58.4588 111.072 58.2645C110.77 57.9117 110.683 57.424 110.861 56.9951L111.468 55.5339L106.711 53.5547L106.104 55.0165C105.927 55.4442 105.519 55.7198 105.057 55.7561C104.932 55.7662 104.805 55.7792 104.677 55.7959C104.551 55.8125 104.426 55.8315 104.302 55.8541C103.845 55.9378 103.38 55.7751 103.097 55.4056L102.139 54.1517ZM105.061 58.7433C107.371 58.4421 109.487 60.0721 109.788 62.3851C110.088 64.6981 108.461 66.8199 106.15 67.1211C103.84 67.4222 101.72 65.7887 101.419 63.4757C101.118 61.1626 102.751 59.0444 105.061 58.7433Z" fill="#EBEBEB"/>
<path d="M71.5953 188.167C71.829 182.419 71.7353 176.66 71.3591 170.92C70.583 159.081 68.6363 147.334 65.9627 135.783C64.458 129.28 62.6045 122.888 60.6738 116.503C60.6156 116.309 60.3083 116.364 60.3617 116.565C66.333 139.075 71.2321 162.305 70.8951 185.704C70.8008 192.253 70.0437 198.685 69.4225 205.192C69.4058 205.366 69.6918 205.436 69.7316 205.257C70.9634 199.689 71.3639 193.854 71.5953 188.167Z" fill="#EBEBEB"/>
<path d="M60.3594 116.566C60.3594 116.566 51.3134 139.553 53.3385 144.956C55.3641 150.359 59.5394 151.511 59.5394 151.511C59.5394 151.511 54.0048 159.422 57.8721 166.842C61.7401 174.262 70.3333 173.911 70.9041 182.324C70.9041 182.324 71.3829 147.147 60.3594 116.566Z" fill="#EBEBEB"/>
<path d="M69.9204 167.799C69.9317 167.76 69.9287 167.719 69.9109 167.678C68.6406 152.048 65.8709 136.467 61.1367 121.437C61.1231 121.393 61.0501 121.407 61.0619 121.453C62.8544 128.177 64.4493 134.938 65.8122 141.735C64.6374 140.524 63.1006 139.827 61.4939 139.324C61.4636 139.315 61.4488 139.358 61.4773 139.371C63.1505 140.095 64.7531 140.934 65.9356 142.353C66.1996 143.685 66.4583 145.018 66.704 146.353C64.6825 144.091 61.879 142.969 59.0737 141.902C59.0339 141.887 59.0132 141.948 59.0517 141.964C61.9733 143.155 64.8836 144.689 66.863 147.21C67.553 151.024 68.157 154.853 68.6798 158.692C67.2018 157.147 65.3779 156.108 63.2858 155.597C63.2229 155.582 63.1879 155.675 63.2513 155.694C65.401 156.313 67.2498 157.518 68.7219 159.202C68.7326 159.214 68.7438 159.22 68.7557 159.227C68.9367 160.578 69.1075 161.931 69.2677 163.285C68.1297 162.313 66.8719 161.574 65.487 161.002C65.4502 160.987 65.4307 161.044 65.4663 161.059C66.8731 161.659 68.1386 162.523 69.2529 163.568C69.2689 163.583 69.285 163.581 69.301 163.587C69.4517 164.875 69.6018 166.162 69.7317 167.453C67.658 164.951 65.0936 163.14 62.0593 161.968C62 161.945 61.9697 162.036 62.0267 162.061C64.9768 163.345 67.5773 165.379 69.5881 167.886C69.6433 167.954 69.7151 167.966 69.7786 167.946C69.9744 169.924 70.1494 171.905 70.2942 173.89C70.296 173.917 70.3405 173.919 70.3393 173.892C70.226 171.86 70.0842 169.829 69.9204 167.799Z" fill="white"/>
<path d="M62.6543 137.036C61.0856 135.957 59.092 135.496 57.2194 135.34C57.1743 135.336 57.1708 135.403 57.2147 135.409C59.1626 135.699 60.799 136.404 62.5885 137.166C62.6662 137.2 62.722 137.083 62.6543 137.036Z" fill="white"/>
<path d="M63.7523 161.374C62.511 160.628 61.0947 160.207 59.6725 159.977C59.6227 159.969 59.6185 160.046 59.6672 160.054C61.1113 160.316 62.3906 160.831 63.703 161.471C63.7588 161.499 63.8051 161.406 63.7523 161.374Z" fill="white"/>
<path d="M95.3727 145.328C91.6002 147.984 87.9797 151.046 84.9027 154.491C81.6227 158.163 79.2304 162.332 77.5596 166.958C74.1367 176.435 72.2605 186.702 72.0897 196.774C71.9935 202.421 72.4955 208.023 73.7023 213.542C73.7462 213.743 74.0459 213.686 74.0156 213.483C72.5406 203.773 72.5946 193.865 74.1794 184.173C75.7345 174.664 78.1749 164.318 84.2126 156.59C87.5003 152.382 91.5996 149.071 95.6521 145.65C95.8639 145.47 95.5916 145.174 95.3727 145.328Z" fill="#EBEBEB"/>
<path d="M73.4219 189.929C73.4219 189.929 76.5286 184.691 81.0539 180.161C85.5793 175.632 89.3908 172.413 89.9788 169.418C90.5674 166.422 85.4458 164.216 85.4458 164.216C85.4458 164.216 91.7084 165.342 93.422 162.71C95.1355 160.08 95.9626 144.84 95.9626 144.84C95.9626 144.84 84.57 152.983 79.2615 164.398C73.9535 175.813 73.4219 189.929 73.4219 189.929Z" fill="#EBEBEB"/>
<path d="M92.0185 148.749C87.2249 153.463 82.4005 158.485 79.5774 164.678C78.6097 166.801 77.7862 169.003 77.0611 171.246C77.0593 171.249 77.0593 171.253 77.0576 171.256C76.9122 171.706 76.7645 172.156 76.6274 172.609C76.6137 172.631 76.6066 172.656 76.6043 172.683C75.2087 177.308 74.222 182.09 73.3676 186.762C73.3623 186.792 73.408 186.808 73.4139 186.777C73.9046 184.399 74.4463 181.998 75.0509 179.604C75.0723 179.605 75.0954 179.601 75.1191 179.591C76.0881 179.183 77.0629 178.928 78.1089 178.831C78.1772 178.825 78.1718 178.706 78.1024 178.71C77.0932 178.759 76.1047 178.936 75.1452 179.25C75.697 177.091 76.2969 174.939 76.9715 172.817C79.171 172.278 81.4666 171.987 83.7284 171.933C83.7515 171.932 83.7557 171.897 83.7314 171.896C81.4512 171.79 79.3081 171.986 77.0872 172.461C77.2047 172.097 77.3269 171.735 77.4486 171.372C78.9337 171.034 80.4253 170.748 81.9448 170.609C81.9721 170.607 81.9698 170.56 81.9425 170.561C80.4544 170.601 78.9877 170.757 77.5399 171.097C78.16 169.261 78.8298 167.45 79.5727 165.686C80.1874 164.228 80.9184 162.842 81.7235 161.505C82.9416 161.229 84.1224 160.967 85.3708 160.854C85.4052 160.851 85.4016 160.796 85.3678 160.794C84.2345 160.72 83.0544 160.805 81.9579 161.131C82.5572 160.162 83.1867 159.213 83.8607 158.294C86.4156 157.727 89.0055 157.201 91.6191 157.692C91.6642 157.701 91.6808 157.625 91.6363 157.613C89.1485 156.958 86.6791 157.337 84.2037 157.827C84.4736 157.467 84.7501 157.111 85.029 156.758C86.5972 156.273 88.157 156.037 89.8024 156.007C89.8362 156.007 89.8415 155.958 89.8065 155.954C88.3048 155.811 86.8072 155.956 85.3559 156.35C87.4682 153.723 89.8012 151.255 92.1075 148.815C92.2154 148.703 92.1324 148.637 92.0185 148.749Z" fill="white"/>
<path d="M91.8932 159.134C91.1432 159.054 90.3808 158.97 89.6272 159.055C89.5359 159.065 89.5436 159.214 89.6355 159.217C90.3855 159.239 91.1355 159.183 91.8855 159.223C91.943 159.227 91.9501 159.14 91.8932 159.134Z" fill="white"/>
<path d="M83.6901 173.918C82.4927 173.904 81.2972 174.226 80.1787 174.624C80.1508 174.634 80.1663 174.681 80.1953 174.674C81.3547 174.398 82.5277 174.286 83.699 174.092C83.7951 174.076 83.7904 173.92 83.6901 173.918Z" fill="white"/>
<path d="M81.2328 168.813C80.7468 168.788 80.2211 168.873 79.7423 168.948C79.6931 168.956 79.696 169.036 79.7471 169.037C80.2312 169.045 80.764 169.059 81.2411 168.967C81.3253 168.95 81.3218 168.818 81.2328 168.813Z" fill="white"/>
<path d="M40.0241 161.504C43.6903 162.78 47.3268 164.42 50.6127 166.496C54.1152 168.709 57.0136 171.529 59.4338 174.886C64.3917 181.764 68.2804 189.638 70.7445 197.75C72.1258 202.298 73.0134 206.948 73.3107 211.693C73.3214 211.865 73.0656 211.889 73.0437 211.717C71.9953 203.518 69.6641 195.512 66.1438 188.035C62.69 180.699 58.3266 172.891 51.6558 168.034C48.0234 165.39 43.9419 163.659 39.8722 161.827C39.6592 161.732 39.8111 161.43 40.0241 161.504Z" fill="#EBEBEB"/>
<path d="M68.0851 192.516C68.0851 192.516 64.3613 188.996 59.6538 186.377C54.9457 183.759 51.1181 182.036 49.9504 179.748C48.7827 177.46 52.4181 174.489 52.4181 174.489C52.4181 174.489 47.6097 176.849 45.6155 175.116C43.6213 173.384 39.4336 161.242 39.4336 161.242C39.4336 161.242 50.5337 165.196 57.4644 173.205C64.3957 181.215 68.0851 192.516 68.0851 192.516Z" fill="#EBEBEB"/>
<path d="M67.5074 190.01C61.9556 179.578 54.5478 170.14 44.3971 163.911C44.3923 163.908 44.3882 163.915 44.3923 163.917C47.0647 165.622 49.527 167.588 51.8221 169.738C49.7673 169.681 47.6758 170.009 45.8543 170.999C45.814 171.021 45.843 171.076 45.8846 171.061C47.9149 170.374 49.8652 169.922 52.025 170.023C52.0546 170.024 52.0736 170.008 52.0944 169.996C52.4545 170.339 52.81 170.686 53.1618 171.036C52.0938 171.082 51.0133 171.234 49.9726 171.46C49.9447 171.466 49.9525 171.509 49.9809 171.504C51.1071 171.286 52.2065 171.21 53.3493 171.226C55.2094 173.097 56.9425 175.099 58.5849 177.177C57.8432 177.069 57.0659 177.132 56.3551 177.339C56.3023 177.355 56.316 177.431 56.3711 177.424C57.1799 177.322 57.9488 177.335 58.7516 177.391C59.0554 177.778 59.3627 178.163 59.6606 178.555C57.378 178.418 55.1418 178.637 52.9239 179.211C52.8912 179.219 52.9001 179.27 52.934 179.263C55.2219 178.814 57.5287 178.67 59.8534 178.813C60.1364 179.189 60.4046 179.576 60.6823 179.956C59.3206 179.914 57.9998 180.085 56.672 180.416C56.6215 180.428 56.6358 180.508 56.6874 180.496C58.0532 180.185 59.4422 180.106 60.8383 180.172C62.0327 181.819 63.1767 183.503 64.2761 185.208C63.6941 185.088 63.0829 185.153 62.5157 185.313C62.4854 185.322 62.4937 185.365 62.5252 185.361C63.1785 185.285 63.7884 185.369 64.4298 185.452C65.4183 186.993 66.3741 188.549 67.2897 190.114C67.368 190.247 67.581 190.148 67.5074 190.01Z" fill="white"/>
<path d="M58.8725 181.357C57.7873 181.264 56.6843 181.435 55.6477 181.752C55.618 181.761 55.6252 181.807 55.6572 181.801C56.7246 181.604 57.7825 181.53 58.8642 181.471C58.9348 181.468 58.9484 181.365 58.8725 181.357Z" fill="white"/>
<path d="M49.1869 168.646C48.6962 168.59 48.1841 168.654 47.6994 168.733C47.6418 168.742 47.6596 168.827 47.7166 168.821C48.2055 168.769 48.6879 168.787 49.1774 168.773C49.2569 168.77 49.2699 168.656 49.1869 168.646Z" fill="white"/>
<path d="M82.4035 227.015H57.3477L60.9201 200.815L61.8333 194.098H77.9179L78.8305 200.815L82.4035 227.015Z" fill="#DBDBDB"/>
<path d="M78.8322 200.815H60.9219L61.835 194.098H77.9197L78.8322 200.815Z" fill="#C7C7C7"/>
<path d="M80.216 191.766H59.5312V197.455H80.216V191.766Z" fill="#DBDBDB"/>
<path d="M41.418 227.015L86.5166 226.871L131.615 226.819L221.813 226.719L312.01 226.818L357.109 226.87L402.207 227.015L357.109 227.161L312.01 227.213L221.813 227.312L131.615 227.212L86.5166 227.16L41.418 227.015Z" fill="#263238"/>
<path d="M223.001 271.288C316.963 271.288 393.134 262.932 393.134 252.624C393.134 242.317 316.963 233.961 223.001 233.961C129.039 233.961 52.8672 242.317 52.8672 252.624C52.8672 262.932 129.039 271.288 223.001 271.288Z" fill="#EBEBEB"/>
<path d="M183.395 249.534C182.012 250.002 142.369 250.142 140.854 249.191C140.277 248.833 139.92 243.054 139.687 236.059C139.636 234.549 139.593 232.989 139.558 231.404L136.344 210.236L162.845 210.066L165.346 231.239L165.245 235.896C165.245 235.896 180.447 242.639 181.997 243.861C183.539 245.082 184.779 249.065 183.395 249.534Z" fill="#EB9481"/>
<path d="M183.395 249.533C182.012 250.002 142.369 250.142 140.854 249.191C140.154 248.752 139.772 240.312 139.559 231.404L165.347 231.238L165.245 235.895C165.245 235.895 180.447 242.638 181.997 243.86C183.539 245.082 184.779 249.065 183.395 249.533Z" fill="white"/>
<path d="M183.396 249.533C182.013 250.001 142.37 250.141 140.855 249.19C140.278 248.832 139.921 243.053 139.688 236.058L165.246 235.895C165.246 235.895 180.448 242.638 181.998 243.859C183.54 245.081 184.78 249.064 183.396 249.533Z" fill="#A6A6A6"/>
<path d="M182.822 247.948C176.176 247.807 149.358 247.871 142.778 248.238C142.725 248.241 142.725 248.277 142.778 248.28C149.363 248.562 176.179 248.282 182.823 248.056C182.963 248.052 182.962 247.951 182.822 247.948Z" fill="#263238"/>
<path d="M179.441 242.441C177.866 242.382 176.328 243.137 175.471 244.08C174.649 244.985 173.947 246.257 173.999 247.637C174.001 247.676 174.074 247.677 174.079 247.636C174.449 245.032 176.806 242.737 179.441 242.524C179.495 242.52 179.495 242.443 179.441 242.441Z" fill="#263238"/>
<path d="M167.826 236.547C165.166 236.52 162.085 237.471 160.44 239.654C160.376 239.738 160.497 239.828 160.576 239.787C162.976 238.538 165.258 237.605 167.872 236.875C168.057 236.824 168.016 236.549 167.826 236.547Z" fill="#263238"/>
<path d="M169.884 237.34C167.224 237.313 164.144 238.264 162.498 240.447C162.435 240.532 162.556 240.621 162.634 240.58C165.034 239.331 167.317 238.398 169.93 237.668C170.115 237.617 170.075 237.342 169.884 237.34Z" fill="#263238"/>
<path d="M171.939 238.137C169.279 238.11 166.198 239.06 164.553 241.244C164.489 241.328 164.611 241.418 164.689 241.377C167.089 240.128 169.372 239.195 171.986 238.465C172.17 238.414 172.129 238.139 171.939 238.137Z" fill="#263238"/>
<path d="M173.993 238.93C171.333 238.902 168.253 239.853 166.608 242.037C166.544 242.121 166.665 242.211 166.744 242.17C169.144 240.921 171.426 239.988 174.04 239.258C174.225 239.206 174.184 238.932 173.993 238.93Z" fill="#263238"/>
<path d="M144.448 241.914C141.464 241.933 141.488 246.576 144.477 246.557C147.461 246.538 147.437 241.895 144.448 241.914Z" fill="#263238"/>
<path d="M170.676 229.432C169.325 228.318 167.633 229.417 166.807 230.58C165.469 232.465 164.555 235.103 164.414 237.398C164.411 237.455 164.454 237.477 164.497 237.474C164.555 237.665 164.78 237.824 164.976 237.688C166.865 236.37 169.048 235.195 170.477 233.336C171.311 232.25 171.952 230.484 170.676 229.432ZM167.432 235.103C166.519 235.773 165.578 236.395 164.69 237.1C165.16 235.771 165.571 234.429 166.175 233.149C166.463 232.538 166.77 231.916 167.14 231.349C167.715 230.468 170.318 228.233 170.593 231.129C170.744 232.726 168.521 234.302 167.432 235.103Z" fill="#263238"/>
<path d="M157.811 238.41C160.128 238.758 162.515 238.089 164.789 237.728C165.025 237.69 165.077 237.419 164.986 237.241C165.02 237.213 165.035 237.167 164.994 237.129C163.303 235.572 160.817 234.306 158.548 233.877C157.147 233.612 155.167 233.995 154.964 235.734C154.773 237.38 156.458 238.206 157.811 238.41ZM156.199 236.9C154.392 234.622 157.815 234.426 158.84 234.662C159.498 234.814 160.151 235.049 160.782 235.289C162.104 235.792 163.329 236.474 164.588 237.105C163.46 237.214 162.351 237.419 161.229 237.569C159.891 237.749 157.196 238.156 156.199 236.9Z" fill="#263238"/>
<path d="M97.4023 112.387C97.4023 112.387 128.179 164.801 129.003 168.481C130.269 174.136 136.981 229.981 136.981 229.981L169.004 229.404C169.004 229.404 163.485 180.166 158.258 163.945C154.492 152.26 127.332 113.509 127.332 113.509L97.4023 112.387Z" fill="#37474F"/>
<path d="M166.09 224.492C161.491 224.459 145.195 224.275 139.073 224.847C139.027 224.851 139.028 224.929 139.075 224.935C141.182 225.238 161.495 224.766 166.092 224.619C166.179 224.616 166.177 224.493 166.09 224.492Z" fill="#263238"/>
<path d="M102.656 117.198C104.672 120.365 106.8 123.466 108.862 126.605C110.925 129.745 112.98 132.891 115.009 136.053C119.063 142.374 123.012 148.76 126.888 155.187C128.706 158.201 130.437 161.243 131.686 164.531C132.922 167.787 133.764 171.175 134.387 174.591C135.015 178.032 135.428 181.505 135.818 184.978C136.234 188.675 136.643 192.374 137.055 196.072C137.899 203.639 138.743 211.206 139.587 218.772C139.69 219.701 139.791 220.629 139.884 221.558C139.898 221.694 139.655 221.721 139.638 221.585C138.695 214.066 137.913 206.525 137.057 198.996C136.631 195.248 136.205 191.499 135.779 187.751C135.382 184.266 135.005 180.777 134.466 177.31C133.935 173.904 133.246 170.513 132.21 167.217C131.129 163.773 129.597 160.54 127.783 157.408C124.072 151 120.145 144.702 116.216 138.421C112.254 132.085 108.259 125.767 104.115 119.542C103.603 118.774 103.087 118.01 102.557 117.253C102.515 117.194 102.617 117.137 102.656 117.198Z" fill="#263238"/>
<path d="M107.493 252.624C106.032 252.535 68.3349 237.243 67.2841 235.795C67.2491 235.746 67.2283 235.651 67.2266 235.516C67.2337 234.218 69.8443 229.675 72.026 223.715C72.1625 223.334 73.1356 221.565 74.486 219.18C78.1979 212.629 84.7661 201.406 84.7661 201.406L109.407 211.207L97.6123 228.882L95.7766 233.16C95.7766 233.16 107.341 245.125 108.318 246.837C109.289 248.549 108.947 252.707 107.493 252.624Z" fill="#EB9481"/>
<path d="M107.493 252.624C106.032 252.535 68.3349 237.243 67.2841 235.794C67.2491 235.746 67.2283 235.651 67.2266 235.515C67.2337 234.217 69.8443 229.675 72.026 223.715C72.1625 223.334 73.1356 221.565 74.486 219.18L97.6129 228.882L95.7772 233.159C95.7772 233.159 107.342 245.124 108.318 246.836C109.289 248.549 108.947 252.707 107.493 252.624Z" fill="white"/>
<path d="M107.489 252.62C106.032 252.535 68.3329 237.242 67.2845 235.791C66.884 235.243 68.5697 230.089 72.0229 223.715L95.7764 233.162C95.7764 233.162 107.341 245.121 108.32 246.836C109.291 248.548 108.947 252.705 107.489 252.62Z" fill="#A6A6A6"/>
<path d="M107.552 250.939C101.444 248.313 76.5601 238.3 70.323 236.169C70.2726 236.152 70.2589 236.185 70.3076 236.207C76.305 238.942 101.269 248.753 107.511 251.04C107.643 251.088 107.68 250.994 107.552 250.939Z" fill="#263238"/>
<path d="M106.482 244.566C105.043 243.92 103.335 244.042 102.188 244.594C101.086 245.125 99.9588 246.041 99.4901 247.338C99.4764 247.376 99.5441 247.404 99.5648 247.368C100.884 245.092 103.929 243.85 106.452 244.643C106.502 244.659 106.532 244.588 106.482 244.566Z" fill="#263238"/>
<path d="M97.922 234.739C95.4668 233.714 92.255 233.438 89.9114 234.844C89.8206 234.899 89.8995 235.027 89.9879 235.019C92.6811 234.762 95.1458 234.755 97.8425 235.06C98.0329 235.081 98.0976 234.812 97.922 234.739Z" fill="#263238"/>
<path d="M99.5313 236.246C97.0761 235.222 93.8644 234.946 91.5208 236.352C91.43 236.407 91.5089 236.535 91.5973 236.526C94.2898 236.27 96.7551 236.262 99.4518 236.567C99.6423 236.589 99.707 236.32 99.5313 236.246Z" fill="#263238"/>
<path d="M101.141 237.754C98.6855 236.73 95.4738 236.454 93.1301 237.86C93.0393 237.915 93.1183 238.043 93.2067 238.035C95.8992 237.778 98.3645 237.77 101.061 238.076C101.251 238.097 101.316 237.827 101.141 237.754Z" fill="#263238"/>
<path d="M102.75 239.262C100.294 238.237 97.0827 237.962 94.7396 239.368C94.6488 239.422 94.7272 239.551 94.8162 239.542C97.5093 239.286 99.974 239.279 102.671 239.583C102.861 239.605 102.926 239.336 102.75 239.262Z" fill="#263238"/>
<path d="M74.2426 230.933C71.4693 229.83 69.7522 234.143 72.5302 235.248C75.304 236.351 77.0211 232.038 74.2426 230.933Z" fill="#263238"/>
<path d="M103.231 229.211C102.396 227.673 100.416 228.055 99.2149 228.824C97.2687 230.067 95.4324 232.17 94.4421 234.244C94.4178 234.295 94.4492 234.332 94.4908 234.346C94.4724 234.544 94.6219 234.777 94.8551 234.724C97.1002 234.211 99.5638 233.943 101.585 232.756C102.764 232.063 104.02 230.667 103.231 229.211ZM98.0994 233.251C97.0012 233.529 95.8964 233.753 94.8088 234.072C95.7427 233.017 96.6262 231.927 97.6657 230.967C98.1617 230.509 98.6803 230.048 99.2351 229.662C100.098 229.06 103.349 227.966 102.518 230.754C102.06 232.291 99.4083 232.918 98.0994 233.251Z" fill="#263238"/>
<path d="M87.9397 232.7C89.957 233.893 92.42 234.17 94.6634 234.689C94.896 234.743 95.0461 234.511 95.0289 234.312C95.0704 234.299 95.1024 234.262 95.0781 234.211C94.0938 232.132 92.2639 230.025 90.3219 228.775C89.1222 228.003 87.1435 227.615 86.3045 229.151C85.51 230.605 86.7619 232.004 87.9397 232.7ZM87.0123 230.695C86.1906 227.905 89.4373 229.009 90.2982 229.613C90.8518 230.001 91.3686 230.464 91.8634 230.924C92.9 231.886 93.7805 232.979 94.7114 234.037C93.625 233.714 92.5208 233.487 91.4232 233.205C90.1155 232.869 87.465 232.234 87.0123 230.695Z" fill="#263238"/>
<path d="M99.5147 227.891L71.9336 216.741C71.9336 216.741 106.131 166.403 106.384 162.657C106.608 159.337 91.5878 130.456 90.9956 122.039C90.3566 112.956 94.7259 105.925 99.5266 101.562L127.98 113.671C127.98 113.671 124.977 118.481 120.246 121.158C120.246 121.158 134.838 154.541 134.01 164.806C133.178 175.126 99.5147 227.891 99.5147 227.891Z" fill="#37474F"/>
<path d="M100.742 222.642C96.7533 220.925 97.9222 221.361 93.9142 219.689C91.9533 218.87 79.0607 213.505 77.098 213.063C77.0547 213.054 77.0268 213.122 77.0648 213.145C78.7807 214.197 91.764 219.337 93.7404 220.117C97.7792 221.712 96.637 221.21 100.694 222.759C100.77 222.788 100.816 222.674 100.742 222.642Z" fill="#263238"/>
<path d="M124.933 120.548C121.969 121.186 119.061 122.235 116.268 123.361C116.158 123.406 116.209 123.569 116.327 123.534C119.235 122.684 122.194 121.89 125.049 120.886C125.273 120.807 125.16 120.499 124.933 120.548Z" fill="#263238"/>
<path d="M121.557 119.376C121.277 119.866 121.039 120.381 120.826 120.902C120.662 121.307 120.451 121.74 120.453 122.182C120.454 122.267 120.569 122.288 120.622 122.236C120.952 121.91 121.128 121.435 121.337 121.029C121.579 120.56 121.831 120.094 122.06 119.617C122.211 119.301 121.73 119.075 121.557 119.376Z" fill="#263238"/>
<path d="M121.902 116.698C122.076 116.26 122.252 115.822 122.436 115.388C122.626 114.938 122.848 114.495 123.003 114.032C123.028 113.959 123.143 114.008 123.114 114.082C122.94 114.521 122.827 114.989 122.688 115.44C122.548 115.894 122.4 116.344 122.25 116.794C121.971 117.632 121.63 118.464 121.271 119.273C121.736 119.267 122.215 119.246 122.638 119.035C123.097 118.806 123.375 118.318 123.601 117.876C123.852 117.386 124.083 116.885 124.341 116.399C124.627 115.86 124.942 115.328 125.13 114.745C125.154 114.672 125.267 114.721 125.241 114.795C124.813 115.998 124.392 117.199 123.725 118.307C123.464 118.742 123.251 119.196 122.769 119.366C122.251 119.549 121.684 119.513 121.145 119.474C121.078 119.493 120.992 119.45 121.016 119.369C121.27 118.473 121.557 117.564 121.902 116.698Z" fill="#263238"/>
<path d="M120.692 122.245C121.703 124.391 122.592 126.529 123.538 128.668C124.461 130.757 125.326 132.872 126.166 134.996C127.863 139.289 129.383 143.659 130.716 148.079C131.376 150.266 131.984 152.469 132.533 154.686C133.084 156.91 133.622 159.155 133.85 161.439C134.079 163.729 133.916 165.994 133.279 168.209C132.632 170.456 131.78 172.419 130.768 174.521C130.15 175.806 129.937 175.632 130.236 174.984C131.085 173.144 133.309 167.568 133.148 162.879C133.07 160.617 132.606 158.39 132.096 156.192C131.575 153.948 130.987 151.721 130.345 149.509C129.082 145.151 127.581 140.879 126.036 136.614C125.171 134.224 124.242 131.859 123.364 129.474C122.48 127.072 121.568 124.911 120.586 122.288C120.56 122.219 120.66 122.178 120.692 122.245Z" fill="#263238"/>
<path d="M99.7516 115.154C100.246 114.971 100.931 115.274 101.435 115.358C102.081 115.467 102.734 115.533 103.389 115.556C104.035 115.578 104.686 115.551 105.328 115.488C105.971 115.426 106.627 115.347 107.185 114.997C108.126 114.409 108.914 113.373 109.552 112.481C110.252 111.5 110.98 110.373 111.398 109.237C111.423 109.168 111.523 109.215 111.501 109.284C111.294 109.946 111.139 110.614 110.875 111.26C110.627 111.869 110.306 112.451 109.965 113.012C109.329 114.06 108.599 115.178 107.509 115.802C106.364 116.456 104.89 116.416 103.614 116.343C102.876 116.3 102.14 116.202 101.417 116.05C100.894 115.939 100.016 115.856 99.6828 115.396C99.6229 115.316 99.6543 115.19 99.7516 115.154Z" fill="#263238"/>
<path d="M79.8108 211.479C84.3444 204.611 88.7938 197.686 93.1631 190.711C97.5437 183.718 101.844 176.674 106.084 169.594C107.098 167.901 108.269 166.209 108.923 164.334C109.633 162.295 109.229 160.32 108.586 158.325C107.407 154.667 105.938 151.107 104.352 147.608C102.761 144.099 101.049 140.647 99.3635 137.183C97.6927 133.746 95.9144 130.299 94.6471 126.688C93.4367 123.238 92.9757 119.661 93.9048 116.084C94.8269 112.534 96.821 109.347 98.9036 106.372C99.4531 105.587 100.013 104.81 100.564 104.026C100.606 103.967 100.696 104.039 100.652 104.098C98.3572 107.199 96.1191 110.482 94.7735 114.123C94.1083 115.922 93.6776 117.816 93.6354 119.739C93.5921 121.689 93.9582 123.623 94.532 125.481C95.648 129.092 97.4096 132.512 99.0508 135.905C100.729 139.373 102.452 142.821 104.07 146.318C105.698 149.837 107.22 153.41 108.472 157.082C109.029 158.716 109.65 160.427 109.613 162.179C109.573 164.097 108.658 165.825 107.711 167.442C103.586 174.485 99.3041 181.439 94.9692 188.353C90.6177 195.294 86.1802 202.18 81.6738 209.02C81.1054 209.883 80.5358 210.745 79.9656 211.606C79.895 211.711 79.7408 211.585 79.8108 211.479Z" fill="#263238"/>
<path d="M129.563 81.6547C132.131 87.2983 145.104 95.0749 151.18 95.9107C155.552 96.5118 168.826 96.7185 173.378 96.0229C178.709 95.208 174.636 80.7987 171.484 81.1676C162.822 82.1816 155.466 83.3102 153.154 83.3102C150.331 83.3102 135.05 78.4001 133.209 77.7093C128.703 76.0182 128.106 78.4536 129.563 81.6547Z" fill="#EB9481"/>
<path d="M129.642 83.1505C132.893 87.9672 143.702 95.8413 143.702 95.8413L145.201 92.5143L150.165 81.5164C150.165 81.5164 140.239 78.3807 133.707 76.9836C132.825 76.7941 132.047 76.6806 131.37 76.6503C127.2 76.4252 126.838 79.0067 129.642 83.1505Z" fill="#FFC727"/>
<path d="M129.642 83.1505C132.893 87.9672 143.702 95.8413 143.702 95.8413L145.201 92.5143C141.171 87.8306 134.949 80.7317 131.37 76.6503C127.2 76.4252 126.838 79.0067 129.642 83.1505Z" fill="#263238"/>
<path d="M141.753 93.616C142.577 91.5946 146.247 83.439 147.158 81.7277C147.221 81.6089 147.311 81.6184 147.26 81.7497C144.937 87.8625 142.742 91.7004 141.834 93.6433C141.811 93.692 141.733 93.6671 141.753 93.616Z" fill="#263238"/>
<path d="M169.895 81.3258C175.167 80.6332 181.688 79.4494 187.21 81.7963C188.294 82.2566 188.686 83.065 188.686 83.065C191.18 84.0731 191.453 85.5545 191.453 85.5545C193.489 87.2052 193.561 88.7591 193.561 88.7591C193.561 88.7591 196.476 89.9744 196.034 91.8604C195.546 93.9768 191.548 91.8556 188.637 92.0356C181.966 92.4473 172.601 94.9005 170.689 95.2106L169.895 81.3258Z" fill="#EB9481"/>
<path d="M181.344 87.5502C183.31 87.4682 185.238 87.3363 187.204 87.5211C189.362 87.7236 191.403 88.2814 193.497 88.797C193.562 88.813 193.591 88.7239 193.529 88.6978C189.888 87.1641 185.22 86.7614 181.34 87.4611C181.245 87.4777 181.245 87.5544 181.344 87.5502Z" fill="#263238"/>
<path d="M180.51 83.5545C182.427 83.5807 185.795 83.649 191.433 85.6151C191.451 85.6216 191.468 85.5925 191.449 85.5824C187.958 83.8188 184.379 83.1916 180.512 83.463C180.391 83.4714 180.383 83.5527 180.51 83.5545Z" fill="#263238"/>
<path d="M180.102 81.4014C183.359 81.5707 185.392 82.0899 188.668 83.0759C188.687 83.0813 188.701 83.051 188.682 83.0427C185.076 81.5309 183.596 81.3913 180.091 81.2892C179.972 81.285 179.975 81.3949 180.102 81.4014Z" fill="#263238"/>
<path d="M180.629 93.043C179.782 93.4409 179.985 93.8888 181.606 94.2648C183.245 94.6486 189.962 94.7513 189.725 97.1C189.491 99.4576 179.989 99.1558 177.337 98.323C174.683 97.4962 170.688 95.2129 170.688 95.2129C172.548 94.898 176.988 93.7059 180.629 93.043Z" fill="#EB9481"/>
<path d="M136.614 90.6539C136.573 91.6684 136.473 92.7014 136.331 93.7255C136.345 93.6886 136.361 93.6524 136.374 93.6156C136.572 93.081 136.764 92.5327 137.004 92.0159C137.016 91.9886 137.064 91.9963 137.058 92.0296C136.954 92.5903 136.757 93.1534 136.544 93.6827C136.442 93.9351 136.338 94.1876 136.229 94.4377C136.155 94.8939 136.073 95.3471 135.981 95.7932C135.806 96.6426 135.005 100.256 134.823 100.867C134.784 100.995 134.632 100.966 134.641 100.822C134.685 100.157 135.357 96.3937 135.493 95.5419C135.754 93.906 136.113 92.2369 136.55 90.6384C136.56 90.6004 136.615 90.6182 136.614 90.6539Z" fill="#263238"/>
<path d="M130.43 117.657C128.848 118.474 126.806 119.739 117.61 117.927C117.035 117.81 116.458 117.668 115.878 117.496C107.254 114.903 96.9114 104.75 96.3281 104.034C96.3281 104.034 110.024 81.8002 127.546 74.8112C129.712 73.9475 133.298 75.6131 135.282 77.6862C135.991 78.4269 137.529 83.8822 136.939 88.3033C136.343 92.7179 132.024 116.848 130.43 117.657Z" fill="#FFC727"/>
<path d="M129.206 88.1016C129.256 88.5791 129.218 89.0442 129.16 89.5064C129.091 89.9673 129 90.4253 128.821 90.8708C128.77 90.3932 128.808 89.9281 128.866 89.466C128.936 89.005 129.027 88.5471 129.206 88.1016Z" fill="white"/>
<path d="M123.233 103.242C123.284 103.72 123.246 104.185 123.188 104.648C123.118 105.109 123.027 105.567 122.848 106.012C122.797 105.534 122.835 105.069 122.894 104.607C122.964 104.146 123.055 103.688 123.233 103.242Z" fill="white"/>
<path d="M113.077 91.8008C113.127 92.2784 113.089 92.7435 113.031 93.2056C112.962 93.6665 112.871 94.1245 112.692 94.57C112.641 94.0924 112.679 93.6273 112.738 93.1646C112.808 92.7043 112.899 92.2463 113.077 91.8008Z" fill="white"/>
<path d="M133.12 102.477C133.17 102.954 133.132 103.419 133.074 103.881C133.005 104.342 132.914 104.8 132.735 105.246C132.684 104.768 132.722 104.303 132.781 103.84C132.851 103.38 132.941 102.922 133.12 102.477Z" fill="white"/>
<path d="M120.082 89.836C120.559 89.7855 121.024 89.8236 121.486 89.8818C121.946 89.9513 122.404 90.0421 122.849 90.2215C122.372 90.2726 121.907 90.2346 121.445 90.1758C120.984 90.1057 120.528 90.0148 120.082 89.836Z" fill="white"/>
<path d="M108.559 100.777C109.036 100.727 109.5 100.765 109.962 100.823C110.422 100.893 110.88 100.984 111.325 101.163C110.848 101.214 110.383 101.176 109.921 101.117C109.46 101.047 109.004 100.956 108.559 100.777Z" fill="white"/>
<path d="M122.113 112.613C122.59 112.563 123.055 112.601 123.517 112.659C123.977 112.729 124.434 112.819 124.879 112.999C124.402 113.05 123.938 113.012 123.476 112.953C123.016 112.883 122.558 112.792 122.113 112.613Z" fill="white"/>
<path d="M105.004 108.316C105.481 108.266 105.946 108.304 106.408 108.362C106.868 108.432 107.326 108.523 107.771 108.702C107.294 108.753 106.829 108.715 106.367 108.656C105.906 108.586 105.449 108.495 105.004 108.316Z" fill="white"/>
<path d="M129.117 77.461C129.594 77.4105 130.059 77.4486 130.521 77.5068C130.981 77.5763 131.438 77.6671 131.883 77.8465C131.406 77.8976 130.942 77.8596 130.48 77.8008C130.02 77.7301 129.562 77.6392 129.117 77.461Z" fill="white"/>
<path d="M125.771 81.25C125.469 81.623 125.114 81.9254 124.746 82.2111C124.372 82.4879 123.984 82.7475 123.543 82.9352C123.844 82.5615 124.2 82.2592 124.568 81.9741C124.942 81.6979 125.33 81.4383 125.771 81.25Z" fill="white"/>
<path d="M107.497 92.0156C107.195 92.3887 106.841 92.691 106.473 92.9767C106.098 93.2535 105.711 93.5131 105.27 93.7014C105.571 93.3278 105.926 93.0254 106.294 92.7403C106.669 92.4635 107.057 92.2045 107.497 92.0156Z" fill="white"/>
<path d="M130.31 96.8789C130.008 97.2519 129.653 97.5543 129.285 97.84C128.911 98.1168 128.523 98.3764 128.082 98.5641C128.383 98.1905 128.739 97.8881 129.107 97.603C129.482 97.3274 129.869 97.0678 130.31 96.8789Z" fill="white"/>
<path d="M115.537 106.191C115.235 106.564 114.88 106.867 114.512 107.152C114.137 107.429 113.75 107.689 113.309 107.877C113.61 107.503 113.965 107.201 114.333 106.915C114.708 106.64 115.095 106.38 115.537 106.191Z" fill="white"/>
<path d="M135.971 84.1523C135.669 84.5254 135.314 84.8277 134.946 85.1134C134.572 85.3902 134.184 85.6498 133.742 85.8375C134.044 85.4639 134.399 85.1615 134.767 84.8764C135.142 84.6002 135.53 84.3406 135.971 84.1523Z" fill="white"/>
<path d="M135.66 94.9492C135.287 94.6469 134.985 94.2917 134.7 93.9234C134.423 93.5486 134.164 93.1607 133.977 92.7188C134.35 93.0205 134.652 93.3763 134.937 93.7446C135.212 94.12 135.471 94.5079 135.66 94.9492Z" fill="white"/>
<path d="M102.734 102.383C102.361 102.08 102.059 101.725 101.774 101.357C101.498 100.982 101.238 100.594 101.051 100.152C101.424 100.454 101.726 100.81 102.011 101.178C102.287 101.553 102.546 101.941 102.734 102.383Z" fill="white"/>
<path d="M131.657 111.23C131.284 110.928 130.982 110.573 130.697 110.205C130.42 109.83 130.161 109.442 129.973 109C130.346 109.302 130.648 109.658 130.933 110.026C131.209 110.401 131.468 110.789 131.657 111.23Z" fill="white"/>
<path d="M117.164 86.0156C116.791 85.7133 116.489 85.3581 116.204 84.9898C115.927 84.615 115.668 84.2271 115.48 83.7852C115.854 84.0869 116.156 84.4427 116.44 84.811C116.716 85.1858 116.976 85.5737 117.164 86.0156Z" fill="white"/>
<path d="M117.418 116.266C117.045 115.963 116.743 115.608 116.458 115.24C116.181 114.865 115.922 114.477 115.734 114.035C116.108 114.337 116.41 114.693 116.694 115.061C116.97 115.436 117.229 115.824 117.418 116.266Z" fill="white"/>
<path d="M119.882 98.4219C119.51 98.1195 119.208 97.7643 118.922 97.396C118.646 97.0212 118.387 96.6333 118.199 96.1914C118.572 96.4932 118.874 96.849 119.159 97.2172C119.435 97.5921 119.694 97.9799 119.882 98.4219Z" fill="white"/>
<path d="M132.059 83.6054C129.826 83.1896 127.722 78.5629 127.457 75.4503C127.44 75.2371 128.503 73.5424 129.696 71.4218C130.415 70.1322 131.186 68.6793 131.793 67.303C131.917 67.0197 132.648 67.9641 132.648 67.9641L134.238 69.1813L139.492 73.2145C139.492 73.2145 137.371 75.7254 136.326 78.1316C136.242 78.3336 136.179 78.529 136.137 78.7227C136.128 78.75 136.122 78.7845 136.108 78.8219C135.808 79.9725 134.217 84.0057 132.059 83.6054Z" fill="#EB9481"/>
<path d="M136.136 78.7228C136.128 78.7501 136.121 78.7845 136.108 78.822C135.82 78.7412 135.52 78.6265 135.2 78.4769C129.45 75.7789 131.987 68.0664 131.987 68.0664L134.238 69.1813L139.492 73.2146C139.492 73.2146 137.371 75.7254 136.327 78.1317C136.241 78.3337 136.179 78.5291 136.136 78.7228Z" fill="#263238"/>
<path d="M145.523 56.7773C145.523 56.7773 148.15 58.4477 148.167 61.4165C148.185 64.3859 147.003 67.2906 146.729 67.3945C146.455 67.4984 145.523 56.7773 145.523 56.7773Z" fill="#263238"/>
<path d="M132.487 58.3182C130.907 61.4397 130.987 71.268 132.959 73.8008C135.819 77.4723 141.327 78.7375 144.652 75.1076C147.875 71.5887 147.544 58.7821 145.264 56.3954C141.906 52.8801 134.82 53.7076 132.487 58.3182Z" fill="#EB9481"/>
<path d="M140.86 66.1899C140.855 66.1644 140.809 66.2226 140.811 66.2505C140.847 66.9199 140.777 67.6927 140.176 67.9292C140.158 67.9363 140.16 67.9701 140.183 67.9666C140.919 67.8448 141.002 66.8178 140.86 66.1899Z" fill="#263238"/>
<path d="M140.247 65.505C139.168 65.448 139.135 67.6107 140.133 67.6636C141.116 67.7153 141.15 65.5525 140.247 65.505Z" fill="#263238"/>
<path d="M144.523 66.1626C144.528 66.137 144.574 66.1952 144.573 66.2226C144.541 66.892 144.617 67.6642 145.219 67.8965C145.238 67.9036 145.235 67.9375 145.213 67.9339C144.476 67.8175 144.385 66.7916 144.523 66.1626Z" fill="#263238"/>
<path d="M145.133 65.4741C146.21 65.4093 146.26 67.5715 145.262 67.6315C144.279 67.6909 144.229 65.5281 145.133 65.4741Z" fill="#263238"/>
<path d="M139.57 63.8586C139.866 63.7891 140.127 63.6756 140.412 63.577C140.733 63.4654 141.001 63.4095 141.215 63.1262C141.33 62.9741 141.288 62.6973 141.15 62.5714C140.831 62.2791 140.403 62.3177 140.011 62.4365C139.585 62.5654 139.289 62.7733 139.041 63.1416C138.798 63.4986 139.181 63.9501 139.57 63.8586Z" fill="#263238"/>
<path d="M145.881 64.8189C145.582 64.7654 145.315 64.6662 145.026 64.5825C144.699 64.488 144.428 64.4465 144.2 64.1744C144.077 64.0283 144.105 63.7497 144.235 63.6172C144.538 63.3084 144.968 63.3244 145.366 63.4218C145.798 63.5275 146.104 63.72 146.372 64.0746C146.632 64.418 146.275 64.8896 145.881 64.8189Z" fill="#263238"/>
<path d="M139.335 72.5387C139.493 72.6978 139.65 72.9164 139.892 72.9408C140.125 72.964 140.399 72.863 140.614 72.7834C140.635 72.7757 140.656 72.7982 140.642 72.8184C140.464 73.0727 140.097 73.2277 139.787 73.1689C139.485 73.1113 139.34 72.8469 139.271 72.5684C139.261 72.5291 139.312 72.5155 139.335 72.5387Z" fill="#263238"/>
<path d="M143.223 69.6719C143.223 69.6719 143.252 70.6746 143.201 71.1403C143.197 71.1837 141.884 70.9265 140.47 71.2383C140.258 71.2852 140.279 71.1124 140.523 70.9995C141.013 70.7732 141.634 70.5612 142.845 70.6912C142.892 70.5659 142.772 69.1486 142.847 69.151C143.104 69.1569 143.586 69.385 143.877 69.5062C143.878 67.4159 143.545 65.3429 143.578 63.2615C143.58 63.1872 143.688 63.1765 143.702 63.2449C144.205 65.3934 144.256 67.7985 144.311 69.9571C144.321 70.2261 143.401 69.7717 143.223 69.6719Z" fill="#263238"/>
<path d="M141.889 70.7839C141.889 70.7839 141.423 71.9589 140.643 72.2743C139.746 72.6378 139.439 71.8246 140.354 71.1065C140.834 70.7299 141.889 70.7839 141.889 70.7839Z" fill="#263238"/>
<path d="M140.954 72.093C140.853 72.1702 140.752 72.2356 140.639 72.2771C139.814 72.6098 139.488 71.9504 140.153 71.2852C140.604 71.3208 141.096 71.4871 140.954 72.093Z" fill="#FF99BA"/>
<path d="M132.03 66.7256C133.115 67.0588 134.363 63.7924 134.716 62.5367C135.027 61.4301 135.386 57.9189 135.439 57.6796C135.492 57.4402 140.169 60.7862 142.904 59.9861C145.638 59.1859 147.466 56.7292 147.504 55.5821C147.541 54.4357 144.146 51.5245 141.208 51.3754C138.27 51.2263 134.293 54.965 134.293 54.965C134.293 54.965 135.644 53.3499 135.598 53.2174C135.552 53.085 133.654 53.8441 133.305 55.1978C133.305 55.1978 133.68 53.4984 133.537 53.4669C133.393 53.4354 131.918 54.8907 132.251 55.9938C132.251 55.9938 130.545 57.4734 130.387 59.0957C130.228 60.7185 130.756 66.3341 132.03 66.7256Z" fill="#263238"/>
<path d="M144.846 59.4131C144.015 59.7962 143.182 60.2174 142.263 60.3385C141.27 60.4698 140.239 60.2203 139.315 59.8651C138.369 59.5028 137.51 58.9765 136.729 58.3332C136.045 57.7695 135.438 57.0894 134.708 56.5874C134.525 56.4621 134.313 56.7252 134.426 56.8939C135.535 58.5595 137.497 59.9501 139.388 60.5506C141.378 61.182 143.248 60.7377 144.857 59.4351C144.866 59.4267 144.86 59.4066 144.846 59.4131Z" fill="#263238"/>
<path d="M133.166 66.4365C133.166 66.4365 131.483 63.0138 129.964 63.5686C128.445 64.1234 129.38 68.8529 130.93 69.7189C132.48 70.585 133.308 69.1641 133.308 69.1641L133.166 66.4365Z" fill="#EB9481"/>
<path d="M130.265 64.9187C130.239 64.9122 130.228 64.9484 130.25 64.9615C131.331 65.6066 131.773 66.7702 132.028 67.9458C131.751 67.4658 131.319 67.1599 130.685 67.4807C130.652 67.4973 130.673 67.549 130.707 67.5472C131.195 67.5187 131.523 67.6529 131.784 68.0806C131.969 68.3836 132.071 68.7465 132.185 69.0809C132.223 69.1926 132.418 69.1658 132.397 69.0411C132.395 69.0316 132.393 69.0221 132.392 69.0126C132.647 67.5448 131.821 65.3096 130.265 64.9187Z" fill="#263238"/>
<path d="M122.042 81.7133C120.882 88.4421 128.139 111.116 132.811 115.352C139.76 121.65 152.607 125.791 157.263 127.138C159.291 127.726 164.905 113.432 162.852 112.491C158.456 110.475 144.797 106.21 143.511 105.115C142.226 104.019 134.377 92.7142 130.888 86.1945C126.207 77.4466 122.629 78.3097 122.042 81.7133Z" fill="#EB9481"/>
<path d="M159.394 111.234C159.394 111.234 165.453 112.78 169.367 113.977C171.551 114.645 175.193 116.125 176.573 117.35C178.637 119.183 186.102 128.169 183.965 130.028C182.03 131.711 176.596 123.176 176.596 123.176C176.596 123.176 182.84 131.303 180.139 132.9C177.437 134.497 172.578 124.036 172.578 124.036C172.578 124.036 178.806 132.53 175.76 133.737C173.458 134.648 168.525 125.422 168.525 125.422C168.525 125.422 173.827 132.76 171.5 133.8C168.929 134.949 163.841 126.718 163.841 126.718C157.481 128.363 153.781 126.542 151.303 124.933C150.703 124.542 159.394 111.234 159.394 111.234Z" fill="#EB9481"/>
<path d="M174.617 120.224C175.385 121.152 176.168 122.086 176.851 123.079C177.534 124.073 178.183 125.091 178.771 126.143C180.211 128.725 180.711 130.567 180.668 130.456C179.646 127.845 177.256 124.251 176.573 123.258C175.891 122.266 175.26 121.241 174.579 120.248C174.561 120.223 174.598 120.202 174.617 120.224Z" fill="#263238"/>
<path d="M170.992 122.627C172.308 123.671 175.068 127.56 176.133 130.165C176.178 130.275 176.119 130.266 176.055 130.166C175.22 128.879 171.852 123.888 170.961 122.647C170.947 122.627 170.974 122.613 170.992 122.627Z" fill="#263238"/>
<path d="M167.507 124.129C169.031 125.639 170.31 127.7 171.316 130.083C171.362 130.19 171.276 130.173 171.213 130.072C169.984 128.069 169.034 126.489 167.444 124.182C167.419 124.145 167.471 124.094 167.507 124.129Z" fill="#263238"/>
<path d="M128.645 82.2072C123.227 74.5362 119.99 77.3797 121.076 85.7058C122.092 93.4926 124.819 102.769 124.819 102.769L138.49 96.14C138.49 96.14 132.112 87.1166 128.645 82.2072Z" fill="#FFC727"/>
<path d="M131.956 85.2227C132.149 85.6622 132.255 86.1166 132.34 86.5746C132.414 87.035 132.468 87.4983 132.433 87.9776C132.239 87.5381 132.133 87.0837 132.048 86.6257C131.975 86.1647 131.922 85.7014 131.956 85.2227Z" fill="white"/>
<path d="M123.867 89.887C124.306 89.6934 124.76 89.5876 125.218 89.5021C125.677 89.4279 126.14 89.3744 126.619 89.4094C126.18 89.6037 125.726 89.71 125.269 89.7944C124.809 89.868 124.345 89.9209 123.867 89.887Z" fill="white"/>
<path d="M124.218 77.957C124.044 78.4049 123.798 78.8011 123.535 79.1854C123.263 79.5632 122.972 79.9291 122.609 80.2427C122.783 79.7949 123.029 79.3981 123.292 79.0144C123.565 78.6366 123.855 78.2713 124.218 77.957Z" fill="white"/>
<path d="M135.752 93.4688C135.579 93.916 135.333 94.3128 135.07 94.6971C134.797 95.0749 134.508 95.4408 134.145 95.7545C134.318 95.3066 134.563 94.9098 134.827 94.5261C135.1 94.1489 135.391 93.783 135.752 93.4688Z" fill="white"/>
<path d="M126.295 98.1215C125.847 97.9474 125.452 97.7015 125.068 97.4378C124.69 97.1651 124.325 96.8747 124.012 96.5117C124.459 96.6852 124.855 96.9311 125.239 97.1954C125.616 97.4681 125.981 97.7585 126.295 98.1215Z" fill="white"/>
<path d="M130.462 84.5178C131.189 85.5199 131.944 86.5023 132.695 87.4866C132.504 86.9888 132.339 86.4857 132.192 85.9719C132.186 85.9481 132.219 85.938 132.228 85.9606C132.38 86.3544 132.549 86.7429 132.694 87.1391C132.764 87.3298 132.835 87.5193 132.908 87.7087C132.924 87.7497 132.94 87.7901 132.956 87.8305C133.541 88.5986 134.123 89.3684 134.685 90.1519C135.356 91.0874 136.004 92.039 136.655 92.9888C137.327 93.9701 137.965 95.1207 138.676 96.0746C138.737 96.1572 137.466 96.6716 137.347 96.7375C137.225 96.8053 137.143 96.6871 137.272 96.6479C137.392 96.6116 138.398 95.9921 138.411 95.9796C137.761 95.0221 137.005 94.1364 136.324 93.2003C135.646 92.2683 134.965 91.3387 134.308 90.3924C132.973 88.4703 131.747 86.4732 130.422 84.5427C130.405 84.5184 130.444 84.4934 130.462 84.5178Z" fill="#263238"/>
<path d="M121.415 91.2146C121.622 91.6197 121.846 92.0207 122.03 92.4371C122.106 92.6094 122.181 92.7816 122.257 92.9539C121.945 91.4712 121.639 89.9874 121.336 88.5024C121.333 88.4852 121.359 88.4763 121.364 88.4941C121.99 90.898 122.623 93.2996 123.205 95.7148C123.759 98.0171 124.429 100.348 124.747 102.697C124.936 102.635 126 102.194 126.031 102.263C126.062 102.333 124.64 103.003 124.621 102.947C123.847 100.651 123.368 98.0433 122.842 95.6803C122.693 95.0151 122.555 94.348 122.413 93.6809C122.259 93.2794 122.072 92.8927 121.89 92.5024C121.697 92.0896 121.542 91.6572 121.372 91.2342C121.362 91.2099 121.402 91.1909 121.415 91.2146Z" fill="#263238"/>
<path d="M125.036 100.48C126.935 99.4077 134.871 95.2954 136.646 94.5202C136.769 94.4662 136.833 94.5297 136.712 94.6016C131.1 97.9494 126.999 99.5924 125.081 100.552C125.034 100.575 124.988 100.507 125.036 100.48Z" fill="#263238"/>
<path d="M342.448 256.638H161.672L187.812 108.227H368.587L342.448 256.638Z" fill="#FFC727"/>
<path d="M249.683 92.8555H190.519L187.812 108.225H251.128L249.683 92.8555Z" fill="#FFC727"/>
<g opacity="0.1">
<path d="M342.448 256.638H161.672L187.812 108.227H368.587L342.448 256.638Z" fill="black"/>
<path d="M249.683 92.8555H190.519L187.812 108.225H251.128L249.683 92.8555Z" fill="black"/>
</g>
<path d="M184.133 99.126C183.899 98.2647 183.846 97.4028 183.836 96.5415C183.844 95.6796 183.897 94.8183 184.133 93.957C184.368 94.8183 184.42 95.6802 184.429 96.5415C184.419 97.4034 184.366 98.2647 184.133 99.126Z" fill="#263238"/>
<path d="M178.878 100.648C178.245 100.019 177.77 99.2993 177.331 98.5586C176.908 97.8083 176.524 97.0356 176.297 96.1719C176.931 96.8003 177.407 97.5203 177.844 98.2616C178.266 99.0124 178.651 99.7852 178.878 100.648Z" fill="#263238"/>
<path d="M175.085 104.596C174.223 104.368 173.451 103.983 172.701 103.561C171.96 103.122 171.24 102.646 170.613 102.012C171.476 102.239 172.248 102.624 172.997 103.047C173.737 103.487 174.456 103.962 175.085 104.596Z" fill="#263238"/>
<path d="M173.773 109.918C172.912 110.152 172.051 110.205 171.191 110.215C170.331 110.206 169.47 110.154 168.609 109.918C169.47 109.683 170.331 109.63 171.191 109.621C172.051 109.631 172.912 109.684 173.773 109.918Z" fill="#263238"/>
<path d="M175.292 115.18C174.663 115.813 173.944 116.29 173.204 116.729C172.455 117.152 171.683 117.537 170.82 117.764C171.448 117.13 172.167 116.653 172.908 116.215C173.658 115.793 174.43 115.407 175.292 115.18Z" fill="#263238"/>
<path d="M179.238 118.977C179.01 119.84 178.626 120.612 178.204 121.363C177.766 122.105 177.29 122.825 176.656 123.453C176.883 122.589 177.267 121.816 177.69 121.066C178.129 120.326 178.605 119.606 179.238 118.977Z" fill="#263238"/>
<path d="M184.551 120.289C184.784 121.151 184.837 122.012 184.847 122.874C184.838 123.735 184.786 124.597 184.551 125.458C184.315 124.597 184.263 123.735 184.254 122.874C184.264 122.012 184.317 121.151 184.551 120.289Z" fill="#263238"/>
<path d="M189.809 118.77C190.442 119.399 190.917 120.118 191.356 120.859C191.779 121.609 192.164 122.382 192.39 123.246C191.756 122.617 191.281 121.898 190.843 121.156C190.421 120.405 190.036 119.633 189.809 118.77Z" fill="#263238"/>
<path d="M193.602 114.82C194.464 115.048 195.236 115.433 195.986 115.856C196.727 116.294 197.446 116.77 198.073 117.405C197.21 117.178 196.438 116.793 195.689 116.369C194.949 115.93 194.23 115.454 193.602 114.82Z" fill="#263238"/>
<path d="M194.914 109.5C195.774 109.266 196.635 109.213 197.496 109.203C198.356 109.212 199.217 109.264 200.077 109.5C199.216 109.735 198.356 109.788 197.496 109.797C196.635 109.787 195.774 109.735 194.914 109.5Z" fill="#263238"/>
<path d="M193.395 104.237C194.023 103.603 194.742 103.127 195.482 102.688C196.231 102.265 197.003 101.879 197.866 101.652C197.238 102.287 196.519 102.763 195.779 103.201C195.029 103.624 194.257 104.009 193.395 104.237Z" fill="#263238"/>
<path d="M189.449 100.441C189.677 99.5781 190.062 98.8054 190.483 98.0545C190.921 97.3126 191.397 96.5927 192.031 95.9648C191.804 96.8285 191.42 97.6013 190.997 98.3515C190.558 99.0923 190.082 99.8122 189.449 100.441Z" fill="#263238"/>
<path d="M342.184 256.637H161.018L135.297 113.613H316.462L342.184 256.637Z" fill="#FFC727"/>
<path d="M198.073 201.046C202.232 201.046 205.603 197.671 205.603 193.507C205.603 189.344 202.232 185.969 198.073 185.969C193.914 185.969 190.543 189.344 190.543 193.507C190.543 197.671 193.914 201.046 198.073 201.046Z" fill="#263238"/>
<path d="M257.6 201.046C261.759 201.046 265.13 197.671 265.13 193.507C265.13 189.344 261.759 185.969 257.6 185.969C253.442 185.969 250.07 189.344 250.07 193.507C250.07 197.671 253.442 201.046 257.6 201.046Z" fill="#263238"/>
<path d="M238.652 202.251L238.239 201.462C238.201 201.39 234.312 194.192 226.485 194.192C219.346 194.192 217.606 200.97 217.535 201.258L217.324 202.121L215.598 201.704L215.805 200.84C215.825 200.755 217.926 192.41 226.485 192.41C235.407 192.41 239.64 200.298 239.816 200.635L240.229 201.424L238.652 202.251Z" fill="#263238"/>
<path d="M330.16 192.639C330.546 192.556 330.932 192.465 331.315 192.367" stroke="#263238" stroke-miterlimit="10"/>
<path d="M333.592 191.693C342.667 188.625 350.268 181.477 350.983 173.127C352.559 154.713 330.159 144.541 332.473 123.263C334.68 102.965 355.946 101.517 364.471 104.322C373.887 107.421 370.661 116.482 362.136 115.313C347.356 113.286 338.065 97.1998 345.085 78.9521C350.329 65.3192 363.403 60.1775 368.714 58.6094" stroke="#263238" stroke-miterlimit="10" stroke-dasharray="4 4"/>
<path d="M369.859 58.2919C370.595 58.1024 371.013 58.0234 371.013 58.0234" stroke="#263238" stroke-miterlimit="10"/>
<path d="M380.421 54.7427C378.907 50.0478 368.772 51.7347 370.751 57.8684C372.729 64.0026 381.935 59.4377 380.421 54.7427Z" fill="#263238"/>
<path d="M365.24 52.8512C365.315 50.7924 368.177 49.2082 372.221 49.9388C376.265 50.67 380.074 53.3971 380.074 53.3971C380.074 53.3971 376.075 55.8461 371.988 56.2779C367.901 56.7104 365.164 54.9201 365.24 52.8512Z" fill="#EBEBEB"/>
<path d="M380.076 53.3946C377.976 53.4088 375.879 53.3387 373.782 53.2746C371.686 53.1849 369.589 53.1017 367.496 52.9318C369.596 52.9164 371.693 52.9877 373.79 53.0518C375.886 53.1421 377.983 53.2259 380.076 53.3946Z" fill="#263238"/>
<path d="M369.305 51.0273C369.912 51.2994 370.474 51.6445 371.04 51.9831C371.591 52.3442 372.147 52.6995 372.657 53.1277C372.049 52.8563 371.488 52.5112 370.922 52.1714C370.37 51.8108 369.815 51.4556 369.305 51.0273Z" fill="#263238"/>
<path d="M374.805 53.2031C374.273 53.6552 373.695 54.0347 373.121 54.4202C372.532 54.7838 371.948 55.1538 371.316 55.4502C371.848 54.9982 372.426 54.618 373 54.2331C373.588 53.8696 374.173 53.5007 374.805 53.2031Z" fill="#263238"/>
<path d="M375.414 52.043C375.727 52.1778 375.987 52.3792 376.251 52.5758C376.498 52.792 376.75 53.0029 376.948 53.2815C376.634 53.1472 376.375 52.9453 376.111 52.7486C375.864 52.5318 375.612 52.3204 375.414 52.043Z" fill="#263238"/>
<path d="M369.094 65.0694C370.358 66.6952 373.604 66.3049 376.458 63.3444C379.311 60.3833 380.808 55.9414 380.808 55.9414C380.808 55.9414 376.133 56.296 372.566 58.3388C368.998 60.381 367.823 63.4359 369.094 65.0694Z" fill="#EBEBEB"/>
<path d="M380.809 55.9414C379.097 57.1591 377.437 58.4439 375.774 59.724C374.126 61.0243 372.473 62.3192 370.875 63.6818C372.587 62.4647 374.247 61.1793 375.91 59.8992C377.558 58.599 379.21 57.304 380.809 55.9414Z" fill="#263238"/>
<path d="M373.457 64.1668C373.79 63.59 374.045 62.9817 374.306 62.3753C374.543 61.7593 374.786 61.1457 374.949 60.5C374.615 61.0762 374.361 61.685 374.1 62.2915C373.863 62.9075 373.621 63.5211 373.457 64.1668Z" fill="#263238"/>
<path d="M376.647 59.1875C375.951 59.1322 375.261 59.1625 374.569 59.1857C373.88 59.235 373.189 59.2777 372.504 59.4066C373.199 59.4625 373.89 59.4322 374.581 59.4084C375.271 59.3585 375.961 59.3152 376.647 59.1875Z" fill="#263238"/>
<path d="M377.816 59.7698C377.991 59.4769 378.085 59.1615 378.184 58.8479C378.258 58.5271 378.34 58.2087 378.337 57.8672C378.161 58.16 378.069 58.4754 377.97 58.7891C377.895 59.1098 377.815 59.4288 377.816 59.7698Z" fill="#263238"/>
<path d="M380.422 54.7438C379.488 55.0456 378.485 54.5323 378.184 53.5968C377.883 52.6612 378.395 51.6586 379.329 51.3562C380.263 51.0539 381.266 51.5677 381.567 52.5032C381.869 53.4388 381.357 54.4421 380.422 54.7438Z" fill="#455A64"/>
<path d="M381.512 58.1303C380.578 58.4321 379.576 57.9188 379.274 56.9833C378.972 56.0477 379.485 55.0451 380.42 54.7427C381.354 54.441 382.356 54.9542 382.658 55.8897C382.959 56.8247 382.447 57.828 381.512 58.1303Z" fill="#455A64"/>
<path d="M186.993 56.6177C186.143 64.749 178.866 70.6539 170.745 69.8033C167.462 69.4594 164.544 68.0647 162.285 65.9815L154.887 67.0686L158.589 60.6652C157.69 58.4775 157.312 56.0427 157.574 53.5366C158.424 45.4054 165.7 39.5004 173.822 40.351C181.943 41.2016 187.842 48.4865 186.993 56.6177Z" fill="white"/>
<path d="M186.994 56.6191C186.685 59.3218 185.698 61.971 184.01 64.1237C183.622 64.6874 183.122 65.1584 182.669 65.6687C182.156 66.1166 181.676 66.6084 181.109 66.9915C180.027 67.8255 178.812 68.4795 177.542 68.9802C176.277 69.5131 174.917 69.7673 173.561 69.9306C172.877 69.9675 172.191 70.0298 171.506 69.9698C170.819 69.9544 170.135 69.8807 169.459 69.7566C166.753 69.266 164.19 67.9978 162.143 66.1403L162.318 66.1944L154.927 67.3301L154.391 67.4127L154.662 66.9393L158.342 60.5235L158.325 60.7765C156.533 56.5508 156.937 51.5184 159.236 47.5808C160.382 45.6093 161.981 43.9105 163.867 42.6435C165.753 41.3729 167.94 40.5764 170.179 40.2728C172.42 39.9752 174.726 40.1796 176.866 40.8912C179.003 41.6117 180.963 42.8235 182.569 44.3922C185.833 47.4994 187.474 52.1611 186.994 56.6191ZM186.994 56.6191C187.444 52.1576 185.77 47.5244 182.504 44.4587C180.882 42.9256 178.919 41.7644 176.801 41.0902C174.679 40.4255 172.41 40.2669 170.224 40.5965C168.04 40.9322 165.924 41.7465 164.116 43.0118C162.312 44.2799 160.79 45.9384 159.691 47.8433C158.571 49.7441 157.99 51.9218 157.815 54.1077C157.677 56.3007 158.034 58.5205 158.855 60.5573L158.909 60.6898L158.838 60.811L155.115 67.2012L154.85 66.8104L162.256 65.7721L162.358 65.7578L162.431 65.8261C164.388 67.6657 166.865 68.95 169.512 69.478C170.173 69.6117 170.844 69.6954 171.518 69.7221C172.192 69.7934 172.866 69.7435 173.542 69.7192C174.881 69.5814 176.231 69.3545 177.492 68.8484C178.758 68.3738 179.981 67.7519 181.059 66.9238C181.626 66.5466 182.106 66.0613 182.621 65.6188C183.075 65.1145 183.576 64.6488 183.966 64.0898C185.662 61.9562 186.667 59.32 186.994 56.6191Z" fill="#263238"/>
<path d="M165.055 61.983C165.055 61.0991 165.668 60.4606 166.501 60.4606C167.384 60.4606 167.948 61.0991 167.948 61.983C167.948 62.8425 167.384 63.5048 166.501 63.5048C165.643 63.5048 165.055 62.8419 165.055 61.983ZM165.668 58.4719L165.324 46.6875H167.678L167.335 58.4719H165.668Z" fill="#FFC727"/>
<path d="M170.695 61.983C170.695 61.0991 171.308 60.4606 172.142 60.4606C173.025 60.4606 173.59 61.0991 173.59 61.983C173.59 62.8425 173.025 63.5048 172.142 63.5048C171.284 63.5048 170.695 62.8419 170.695 61.983ZM171.308 58.4719L170.965 46.6875H173.32L172.977 58.4719H171.308Z" fill="#FFC727"/>
<path d="M176.336 61.983C176.336 61.0991 176.949 60.4606 177.783 60.4606C178.666 60.4606 179.23 61.0991 179.23 61.983C179.23 62.8425 178.665 63.5048 177.783 63.5048C176.925 63.5048 176.336 62.8419 176.336 61.983ZM176.949 58.4719L176.606 46.6875H178.96L178.617 58.4719H176.949Z" fill="#FFC727"/>
</svg>
