<svg width="16" height="16" viewBox="0 0 16 16" fill="none" xmlns="http://www.w3.org/2000/svg">
<path d="M4.19536 2.86202C4.32038 2.73704 4.48992 2.66683 4.66669 2.66683C4.84347 2.66683 5.01301 2.73704 5.13803 2.86202L7.80469 5.52869C7.92613 5.65442 7.99333 5.82282 7.99181 5.99762C7.99029 6.17242 7.92018 6.33963 7.79657 6.46323C7.67297 6.58684 7.50576 6.65695 7.33096 6.65847C7.15616 6.65999 6.98776 6.59279 6.86203 6.47135L5.33336 4.94269V12.6667C5.33336 12.8435 5.26312 13.0131 5.1381 13.1381C5.01307 13.2631 4.8435 13.3334 4.66669 13.3334C4.48988 13.3334 4.32031 13.2631 4.19529 13.1381C4.07027 13.0131 4.00003 12.8435 4.00003 12.6667V4.94269L2.47136 6.47135C2.34563 6.59279 2.17722 6.65999 2.00243 6.65847C1.82763 6.65695 1.66042 6.58684 1.53681 6.46323C1.41321 6.33963 1.3431 6.17242 1.34158 5.99762C1.34006 5.82282 1.40726 5.65442 1.52869 5.52869L4.19536 2.86202ZM10.6667 11.0574V3.33335C10.6667 3.15654 10.7369 2.98697 10.862 2.86195C10.987 2.73693 11.1565 2.66669 11.3334 2.66669C11.5102 2.66669 11.6797 2.73693 11.8048 2.86195C11.9298 2.98697 12 3.15654 12 3.33335V11.0574L13.5287 9.52869C13.6544 9.40725 13.8228 9.34005 13.9976 9.34157C14.1724 9.34309 14.3396 9.4132 14.4632 9.53681C14.5868 9.66041 14.657 9.82762 14.6585 10.0024C14.66 10.1772 14.5928 10.3456 14.4714 10.4714L11.8047 13.138C11.6797 13.263 11.5101 13.3332 11.3334 13.3332C11.1566 13.3332 10.987 13.263 10.862 13.138L8.19536 10.4714C8.07392 10.3456 8.00673 10.1772 8.00824 10.0024C8.00976 9.82762 8.07988 9.66041 8.20348 9.53681C8.32709 9.4132 8.4943 9.34309 8.66909 9.34157C8.84389 9.34005 9.01229 9.40725 9.13803 9.52869L10.6667 11.0574Z" fill="#98A2B3"/>
</svg>
