<svg width="18" height="18" viewBox="0 0 18 18" fill="none" xmlns="http://www.w3.org/2000/svg">
<path d="M6 4H15V15C15 15.5304 14.7893 16.0391 14.4142 16.4142C14.0391 16.7893 13.5304 17 13 17H5C4.46957 17 3.96086 16.7893 3.58579 16.4142C3.21071 16.0391 3 15.5304 3 15V4H6Z" fill="#ED2727"/>
<path d="M17 4H15M15 4H3M15 4V15C15 15.5304 14.7893 16.0391 14.4142 16.4142C14.0391 16.7893 13.5304 17 13 17H5C4.46957 17 3.96086 16.7893 3.58579 16.4142C3.21071 16.0391 3 15.5304 3 15V4M1 4H3M6 3.5C6 2.83696 6.26339 2.20107 6.73223 1.73223C7.20107 1.26339 7.83696 1 8.5 1H9.5C10.163 1 10.7989 1.26339 11.2678 1.73223C11.7366 2.20107 12 2.83696 12 3.5" stroke="#ED2727" stroke-width="2" stroke-linecap="round" stroke-linejoin="round"/>
</svg>
