<svg xmlns="http://www.w3.org/2000/svg" width="24" height="24" viewBox="0 0 24 24" fill="none">
            <path
              d="M5.25 21C4.65326 21 4.08097 20.7234 3.65901 20.2312C3.23705 19.7389 3 19.0712 3 18.375V14.625C3 14.3266 3.10159 14.0405 3.28243 13.8295C3.46327 13.6185 3.70854 13.5 3.96429 13.5C4.22003 13.5 4.4653 13.6185 4.64614 13.8295C4.82698 14.0405 4.92857 14.3266 4.92857 14.625V18.375C4.92857 18.582 5.07257 18.75 5.25 18.75H18.75C18.8352 18.75 18.917 18.7105 18.9773 18.6402C19.0376 18.5698 19.0714 18.4745 19.0714 18.375V14.625C19.0714 14.3266 19.173 14.0405 19.3539 13.8295C19.5347 13.6185 19.78 13.5 20.0357 13.5C20.2915 13.5 20.5367 13.6185 20.7176 13.8295C20.8984 14.0405 21 14.3266 21 14.625V18.375C21 19.0712 20.7629 19.7389 20.341 20.2312C19.919 20.7234 19.3467 21 18.75 21H5.25Z"
              fill="#747474"
            />
            <path
              d="M17.6703 7.07963C17.7747 7.18403 17.8575 7.30797 17.914 7.44438C17.9705 7.58079 17.9996 7.72699 17.9996 7.87463C17.9996 8.02228 17.9705 8.16848 17.914 8.30488C17.8575 8.44129 17.7747 8.56523 17.6703 8.66963C17.5659 8.77403 17.4419 8.85685 17.3055 8.91335C17.1691 8.96985 17.0229 8.99893 16.8753 8.99893C16.7276 8.99893 16.5814 8.96985 16.445 8.91335C16.3086 8.85685 16.1847 8.77403 16.0803 8.66963L13.1253 5.71613V14.2496C13.1253 14.548 13.0067 14.8341 12.7958 15.0451C12.5848 15.2561 12.2986 15.3746 12.0003 15.3746C11.7019 15.3746 11.4158 15.2561 11.2048 15.0451C10.9938 14.8341 10.8753 14.548 10.8753 14.2496V5.71613L7.92028 8.66963C7.81588 8.77403 7.69193 8.85685 7.55553 8.91335C7.41912 8.96985 7.27292 8.99893 7.12528 8.99893C6.97763 8.99893 6.83143 8.96985 6.69503 8.91335C6.55862 8.85685 6.43468 8.77403 6.33028 8.66963C6.22588 8.56523 6.14306 8.44129 6.08656 8.30488C6.03006 8.16848 6.00098 8.02228 6.00098 7.87463C6.00098 7.72699 6.03006 7.58079 6.08656 7.44438C6.14306 7.30797 6.22588 7.18403 6.33028 7.07963L11.2053 2.20463C11.3096 2.10014 11.4335 2.01724 11.57 1.96067C11.7064 1.90411 11.8526 1.875 12.0003 1.875C12.148 1.875 12.2942 1.90411 12.4306 1.96067C12.567 2.01724 12.6909 2.10014 12.7953 2.20463L17.6703 7.07963Z"
              fill="#747474"
            />
</svg>