<svg width="20" height="21" viewBox="0 0 20 21" fill="none" xmlns="http://www.w3.org/2000/svg">
<path fill-rule="evenodd" clip-rule="evenodd" d="M0 10.5C0 4.977 4.477 0.5 10 0.5C15.523 0.5 20 4.977 20 10.5C20 16.023 15.523 20.5 10 20.5C4.477 20.5 0 16.023 0 10.5ZM8.5 6.5C8.5 6.10218 8.65804 5.72064 8.93934 5.43934C9.22064 5.15804 9.60218 5 10 5H10.01C10.4078 5 10.7894 5.15804 11.0707 5.43934C11.352 5.72064 11.51 6.10218 11.51 6.5V6.51C11.51 6.90782 11.352 7.28936 11.0707 7.57066C10.7894 7.85196 10.4078 8.01 10.01 8.01H10C9.60218 8.01 9.22064 7.85196 8.93934 7.57066C8.65804 7.28936 8.5 6.90782 8.5 6.51V6.5ZM10 9.5C10.2652 9.5 10.5196 9.60536 10.7071 9.79289C10.8946 9.98043 11 10.2348 11 10.5V14.5C11 14.7652 10.8946 15.0196 10.7071 15.2071C10.5196 15.3946 10.2652 15.5 10 15.5C9.73478 15.5 9.48043 15.3946 9.29289 15.2071C9.10536 15.0196 9 14.7652 9 14.5V10.5C9 10.2348 9.10536 9.98043 9.29289 9.79289C9.48043 9.60536 9.73478 9.5 10 9.5Z" fill="#3A8187"/>
</svg>
